{
  "accessors": [
    {
      "bufferView": 2,
      "componentType": 5126,
      "count": 65532,
      "max": [
        4.795539855957031,
        0.4092000126838684,
        2.845639944076538
      ],
      "min": [
        -4.693160057067871,
        -0.4717400074005127,
        -2.6456899642944336
      ],
      "type": "VEC3"
    },
    {
      "bufferView": 2,
      "byteOffset": 786384,
      "componentType": 5126,
      "count": 65532,
      "max": [
        1.0,
        1.0,
        1.0
      ],
      "min": [
        -1.0,
        -1.0,
        -1.0
      ],
      "type": "VEC3"
    },
    {
      "bufferView": 1,
      "componentType": 5126,
      "count": 65532,
      "max": [
        0.9017900228500366,
        0.9588800072669983
      ],
      "min": [
        0.10233999788761139,
        0.04328000172972679
      ],
      "type": "VEC2"
    },
    {
      "bufferView": 0,
      "componentType": 5125,
      "count": 144345,
      "type": "SCALAR"
    },
    {
      "bufferView": 2,
      "byteOffset": 1572768,
      "componentType": 5126,
      "count": 65533,
      "max": [
        2.966360092163086,
        -0.1497499942779541,
        1.3765699863433838
      ],
      "min": [
        -2.1039700508117676,
        -0.31540000438690186,
        -1.7985999584197998
      ],
      "type": "VEC3"
    },
    {
      "bufferView": 2,
      "byteOffset": 2359164,
      "componentType": 5126,
      "count": 65533,
      "max": [
        1.0,
        1.0,
        1.0
      ],
      "min": [
        -1.0,
        -1.0,
        -1.0
      ],
      "type": "VEC3"
    },
    {
      "bufferView": 1,
      "byteOffset": 524256,
      "componentType": 5126,
      "count": 65533,
      "max": [
        0.9068099856376648,
        0.3780899941921234
      ],
      "min": [
        0.6238800287246704,
        0.3485200107097626
      ],
      "type": "VEC2"
    },
    {
      "bufferView": 0,
      "byteOffset": 577380,
      "componentType": 5125,
      "count": 136407,
      "type": "SCALAR"
    },
    {
      "bufferView": 2,
      "byteOffset": 3145560,
      "componentType": 5126,
      "count": 65533,
      "max": [
        4.77209997177124,
        -0.15020999312400818,
        1.4070600271224976
      ],
      "min": [
        -4.201169967651367,
        -0.406139999628067,
        -2.6360199451446533
      ],
      "type": "VEC3"
    },
    {
      "bufferView": 2,
      "byteOffset": 3931956,
      "componentType": 5126,
      "count": 65533,
      "max": [
        1.0,
        1.0,
        1.0
      ],
      "min": [
        -1.0,
        -1.0,
        -1.0
      ],
      "type": "VEC3"
    },
    {
      "bufferView": 1,
      "byteOffset": 1048520,
      "componentType": 5126,
      "count": 65533,
      "max": [
        0.924589991569519,
        0.9094600081443787
      ],
      "min": [
        0.0,
        0.0
      ],
      "type": "VEC2"
    },
    {
      "bufferView": 0,
      "byteOffset": 1123008,
      "componentType": 5125,
      "count": 131049,
      "type": "SCALAR"
    },
    {
      "bufferView": 2,
      "byteOffset": 4718352,
      "componentType": 5126,
      "count": 65532,
      "max": [
        4.888150215148926,
        0.09527000039815903,
        2.0390799045562744
      ],
      "min": [
        -4.154170036315918,
        -0.39403998851776123,
        -2.6882400512695313
      ],
      "type": "VEC3"
    },
    {
      "bufferView": 2,
      "byteOffset": 5504736,
      "componentType": 5126,
      "count": 65532,
      "max": [
        1.0,
        1.0,
        1.0
      ],
      "min": [
        -1.0,
        -1.0,
        -1.0
      ],
      "type": "VEC3"
    },
    {
      "bufferView": 1,
      "byteOffset": 1572784,
      "componentType": 5126,
      "count": 65532,
      "max": [
        0.9091899991035461,
        0.9672099947929382
      ],
      "min": [
        0.0,
        0.0
      ],
      "type": "VEC2"
    },
    {
      "bufferView": 0,
      "byteOffset": 1647204,
      "componentType": 5125,
      "count": 238209,
      "type": "SCALAR"
    },
    {
      "bufferView": 2,
      "byteOffset": 6291120,
      "componentType": 5126,
      "count": 65532,
      "max": [
        3.340130090713501,
        -0.14946000277996063,
        -0.626010000705719
      ],
      "min": [
        -1.905460000038147,
        -0.3106899857521057,
        -2.6360199451446533
      ],
      "type": "VEC3"
    },
    {
      "bufferView": 2,
      "byteOffset": 7077504,
      "componentType": 5126,
      "count": 65532,
      "max": [
        1.0,
        1.0,
        0.0
      ],
      "min": [
        -1.0,
        -1.0,
        0.0
      ],
      "type": "VEC3"
    },
    {
      "bufferView": 1,
      "byteOffset": 2097040,
      "componentType": 5126,
      "count": 65532,
      "max": [
        0.39087000489234924,
        0.11059000343084335
      ],
      "min": [
        0.353659987449646,
        0.04328000172972679
      ],
      "type": "VEC2"
    },
    {
      "bufferView": 0,
      "byteOffset": 2600040,
      "componentType": 5125,
      "count": 192246,
      "type": "SCALAR"
    },
    {
      "bufferView": 2,
      "byteOffset": 7863888,
      "componentType": 5126,
      "count": 65532,
      "max": [
        4.888150215148926,
        0.09527000039815903,
        2.0390799045562744
      ],
      "min": [
        -4.154170036315918,
        -0.3900099992752075,
        -2.6882400512695313
      ],
      "type": "VEC3"
    },
    {
      "bufferView": 2,
      "byteOffset": 8650272,
      "componentType": 5126,
      "count": 65532,
      "max": [
        1.0,
        1.0,
        1.0
      ],
      "min": [
        -1.0,
        -1.0,
        -1.0
      ],
      "type": "VEC3"
    },
    {
      "bufferView": 1,
      "byteOffset": 2621296,
      "componentType": 5126,
      "count": 65532,
      "max": [
        0.907509982585907,
        0.9366099834442139
      ],
      "min": [
        0.13042999804019928,
        0.03618000075221062
      ],
      "type": "VEC2"
    },
    {
      "bufferView": 0,
      "byteOffset": 3369024,
      "componentType": 5125,
      "count": 185988,
      "type": "SCALAR"
    },
    {
      "bufferView": 2,
      "byteOffset": 9436656,
      "componentType": 5126,
      "count": 65532,
      "max": [
        4.691510200500488,
        -0.22078999876976013,
        1.3333300352096558
      ],
      "min": [
        3.601490020751953,
        -0.3106899857521057,
        -2.499890089035034
      ],
      "type": "VEC3"
    },
    {
      "bufferView": 2,
      "byteOffset": 10223040,
      "componentType": 5126,
      "count": 65532,
      "max": [
        1.0,
        1.0,
        0.0
      ],
      "min": [
        -1.0,
        -1.0,
        0.0
      ],
      "type": "VEC3"
    },
    {
      "bufferView": 1,
      "byteOffset": 3145552,
      "componentType": 5126,
      "count": 65532,
      "max": [
        0.44047001004219055,
        0.12050999701023102
      ],
      "min": [
        0.3462199866771698,
        0.03618000075221062
      ],
      "type": "VEC2"
    },
    {
      "bufferView": 0,
      "byteOffset": 4112976,
      "componentType": 5125,
      "count": 191511,
      "type": "SCALAR"
    },
    {
      "bufferView": 2,
      "byteOffset": 11009424,
      "componentType": 5126,
      "count": 31122,
      "max": [
        4.568689823150635,
        0.34926000237464905,
        2.3002400398254395
      ],
      "min": [
        -4.693160057067871,
        -0.4717400074005127,
        -2.4720399379730225
      ],
      "type": "VEC3"
    },
    {
      "bufferView": 2,
      "byteOffset": 11382888,
      "componentType": 5126,
      "count": 31122,
      "max": [
        1.0,
        1.0,
        1.0
      ],
      "min": [
        -1.0,
        -1.0,
        -0.4590645134449005
      ],
      "type": "VEC3"
    },
    {
      "bufferView": 1,
      "byteOffset": 3669808,
      "componentType": 5126,
      "count": 31122,
      "max": [
        0.9069499969482422,
        0.9587600231170654
      ],
      "min": [
        0.3685399889945984,
        0.04328000172972679
      ],
      "type": "VEC2"
    },
    {
      "bufferView": 0,
      "byteOffset": 4879020,
      "componentType": 5125,
      "count": 90927,
      "type": "SCALAR"
    }
  ],
  "asset": {
    "extras": {
      "author": "Хлюпич (https://sketchfab.com/foxplay382)",
      "license": "CC-BY-4.0 (http://creativecommons.org/licenses/by/4.0/)",
      "source": "https://sketchfab.com/3d-models/videocard-3dfx-voodoo-2-6d3f9151b11b46f184dcae4c0ed22479",
      "title": "VideoCard 3Dfx VooDoo 2"
    },
    "generator": "Sketchfab-12.66.0",
    "version": "2.0"
  },
  "bufferViews": [
    {
      "buffer": 0,
      "byteLength": 5242728,
      "name": "floatBufferViews",
      "target": 34963
    },
    {
      "buffer": 0,
      "byteLength": 3918784,
      "byteOffset": 5242728,
      "byteStride": 8,
      "name": "floatBufferViews",
      "target": 34962
    },
    {
      "buffer": 0,
      "byteLength": 11756352,
      "byteOffset": 9161512,
      "byteStride": 12,
      "name": "floatBufferViews",
      "target": 34962
    }
  ],
  "buffers": [
    {
      "byteLength": 20917864,
      "uri": "scene.bin"
    }
  ],
  "images": [
    {
      "uri": "textures/None.001_baseColor.png"
    }
  ],
  "materials": [
    {
      "doubleSided": true,
      "name": "None.001",
      "pbrMetallicRoughness": {
        "baseColorTexture": {
          "index": 0
        },
        "metallicFactor": 0.0,
        "roughnessFactor": 0.6
      }
    }
  ],
  "meshes": [
    {
      "name": "Cube.002_Cube.010_Cube.002_Cube.000_0",
      "primitives": [
        {
          "attributes": {
            "NORMAL": 1,
            "POSITION": 0,
            "TEXCOORD_0": 2
          },
          "indices": 3,
          "material": 0,
          "mode": 4
        }
      ]
    },
    {
      "name": "Cube.002_Cube.010_Cube.002_Cube.000_0",
      "primitives": [
        {
          "attributes": {
            "NORMAL": 5,
            "POSITION": 4,
            "TEXCOORD_0": 6
          },
          "indices": 7,
          "material": 0,
          "mode": 4
        }
      ]
    },
    {
      "name": "Cube.002_Cube.010_Cube.002_Cube.000_0",
      "primitives": [
        {
          "attributes": {
            "NORMAL": 9,
            "POSITION": 8,
            "TEXCOORD_0": 10
          },
          "indices": 11,
          "material": 0,
          "mode": 4
        }
      ]
    },
    {
      "name": "Cube.002_Cube.010_Cube.002_Cube.000_0",
      "primitives": [
        {
          "attributes": {
            "NORMAL": 13,
            "POSITION": 12,
            "TEXCOORD_0": 14
          },
          "indices": 15,
          "material": 0,
          "mode": 4
        }
      ]
    },
    {
      "name": "Cube.002_Cube.010_Cube.002_Cube.000_0",
      "primitives": [
        {
          "attributes": {
            "NORMAL": 17,
            "POSITION": 16,
            "TEXCOORD_0": 18
          },
          "indices": 19,
          "material": 0,
          "mode": 4
        }
      ]
    },
    {
      "name": "Cube.002_Cube.010_Cube.002_Cube.000_0",
      "primitives": [
        {
          "attributes": {
            "NORMAL": 21,
            "POSITION": 20,
            "TEXCOORD_0": 22
          },
          "indices": 23,
          "material": 0,
          "mode": 4
        }
      ]
    },
    {
      "name": "Cube.002_Cube.010_Cube.002_Cube.000_0",
      "primitives": [
        {
          "attributes": {
            "NORMAL": 25,
            "POSITION": 24,
            "TEXCOORD_0": 26
          },
          "indices": 27,
          "material": 0,
          "mode": 4
        }
      ]
    },
    {
      "name": "Cube.002_Cube.010_Cube.002_Cube.000_0",
      "primitives": [
        {
          "attributes": {
            "NORMAL": 29,
            "POSITION": 28,
            "TEXCOORD_0": 30
          },
          "indices": 31,
          "material": 0,
          "mode": 4
        }
      ]
    }
  ],
  "nodes": [
    {
      "children": [
        1
      ],
      "matrix": [
        1.0,
        0.0,
        0.0,
        0.0,
        0.0,
        2.220446049250313e-16,
        -1.0,
        0.0,
        0.0,
        1.0,
        2.220446049250313e-16,
        0.0,
        0.0,
        0.0,
        0.0,
        1.0
      ],
      "name": "Sketchfab_model"
    },
    {
      "children": [
        2,
        4
      ],
      "name": "Root"
    },
    {
      "children": [
        3
      ],
      "matrix": [
        -0.29086000000000006,
        0.9551700000000001,
        -0.05519000000000001,
        0.0,
        -0.7711,
        -0.19988000000000003,
        0.6045200000000001,
        0.0,
        0.5663900000000001,
        0.21839000000000003,
        0.7946700000000001,
        0.0,
        4.076250000000001,
        1.00545,
        5.903860000000001,
        1.0
      ],
      "name": "Lamp"
    },
    {
      "name": "Lamp"
    },
    {
      "children": [
        5,
        6,
        7,
        8,
        9,
        10,
        11,
        12
      ],
      "matrix": [
        1.0,
        0.0,
        0.0,
        0.0,
        0.0,
        -0.0,
        1.0,
        0.0,
        0.0,
        -1.0,
        -0.0,
        0.0,
        0.0,
        0.0,
        0.0,
        1.0
      ],
      "name": "Cube.002_Cube.010_Cube.002_Cube.000"
    },
    {
      "mesh": 0,
      "name": "Cube.002_Cube.010_Cube.002_Cube.000_0"
    },
    {
      "mesh": 1,
      "name": "Cube.002_Cube.010_Cube.002_Cube.000_0"
    },
    {
      "mesh": 2,
      "name": "Cube.002_Cube.010_Cube.002_Cube.000_0"
    },
    {
      "mesh": 3,
      "name": "Cube.002_Cube.010_Cube.002_Cube.000_0"
    },
    {
      "mesh": 4,
      "name": "Cube.002_Cube.010_Cube.002_Cube.000_0"
    },
    {
      "mesh": 5,
      "name": "Cube.002_Cube.010_Cube.002_Cube.000_0"
    },
    {
      "mesh": 6,
      "name": "Cube.002_Cube.010_Cube.002_Cube.000_0"
    },
    {
      "mesh": 7,
      "name": "Cube.002_Cube.010_Cube.002_Cube.000_0"
    }
  ],
  "samplers": [
    {
      "magFilter": 9729,
      "minFilter": 9987,
      "wrapS": 10497,
      "wrapT": 10497
    }
  ],
  "scene": 0,
  "scenes": [
    {
      "name": "Sketchfab_Scene",
      "nodes": [
        0
      ]
    }
  ],
  "textures": [
    {
      "sampler": 0,
      "source": 0
    }
  ]
}
