{
  "accessors": [
    {
      "bufferView": 2,
      "componentType": 5126,
      "count": 16,
      "max": [
        37.5,
        35.5,
        -1.9999998807907104
      ],
      "min": [
        -37.5,
        -35.82805252075195,
        -4.642901420593262
      ],
      "type": "VEC3"
    },
    {
      "bufferView": 2,
      "byteOffset": 192,
      "componentType": 5126,
      "count": 16,
      "max": [
        1.0,
        1.0,
        0.0
      ],
      "min": [
        -1.0,
        -1.0,
        0.0
      ],
      "type": "VEC3"
    },
    {
      "bufferView": 3,
      "componentType": 5126,
      "count": 16,
      "max": [
        1.0,
        1.0,
        1.8076768810715294e-06,
        1.0
      ],
      "min": [
        -1.0,
        -1.0,
        0.0,
        1.0
      ],
      "type": "VEC4"
    },
    {
      "bufferView": 1,
      "componentType": 5126,
      "count": 16,
      "max": [
        0.9999024271965027,
        0.9542813301086426
      ],
      "min": [
        9.767267329152673e-05,
        9.767267329152673e-05
      ],
      "type": "VEC2"
    },
    {
      "bufferView": 1,
      "byteOffset": 128,
      "componentType": 5126,
      "count": 16,
      "max": [
        0.9999024271965027,
        0.9542813301086426
      ],
      "min": [
        9.767267329152673e-05,
        9.767267329152673e-05
      ],
      "type": "VEC2"
    },
    {
      "bufferView": 0,
      "componentType": 5125,
      "count": 24,
      "type": "SCALAR"
    },
    {
      "bufferView": 2,
      "byteOffset": 384,
      "componentType": 5126,
      "count": 4,
      "max": [
        37.5,
        35.5,
        -4.642901420593262
      ],
      "min": [
        -37.5,
        -35.82805252075195,
        -4.642901420593262
      ],
      "type": "VEC3"
    },
    {
      "bufferView": 2,
      "byteOffset": 432,
      "componentType": 5126,
      "count": 4,
      "max": [
        0.0,
        0.0,
        -1.0
      ],
      "min": [
        0.0,
        0.0,
        -1.0
      ],
      "type": "VEC3"
    },
    {
      "bufferView": 3,
      "byteOffset": 256,
      "componentType": 5126,
      "count": 4,
      "max": [
        -1.0,
        1.2505871893608855e-07,
        0.0,
        1.0
      ],
      "min": [
        -1.0,
        1.1221052886867255e-07,
        0.0,
        1.0
      ],
      "type": "VEC4"
    },
    {
      "bufferView": 1,
      "byteOffset": 256,
      "componentType": 5126,
      "count": 4,
      "max": [
        0.9640665650367737,
        0.9715027809143066
      ],
      "min": [
        0.04669313505291939,
        0.06494557857513428
      ],
      "type": "VEC2"
    },
    {
      "bufferView": 1,
      "byteOffset": 288,
      "componentType": 5126,
      "count": 4,
      "max": [
        0.9640665650367737,
        0.9715027809143066
      ],
      "min": [
        0.04669313505291939,
        0.06494557857513428
      ],
      "type": "VEC2"
    },
    {
      "bufferView": 0,
      "byteOffset": 96,
      "componentType": 5125,
      "count": 6,
      "type": "SCALAR"
    },
    {
      "bufferView": 2,
      "byteOffset": 480,
      "componentType": 5126,
      "count": 20,
      "max": [
        9.942138671875,
        7.942138671875,
        0.2660008668899536
      ],
      "min": [
        -9.942138671875,
        -8.270191192626953,
        -1.9999998807907104
      ],
      "type": "VEC3"
    },
    {
      "bufferView": 2,
      "byteOffset": 720,
      "componentType": 5126,
      "count": 20,
      "max": [
        1.0,
        1.0,
        1.0
      ],
      "min": [
        -1.0,
        -1.0,
        0.0
      ],
      "type": "VEC3"
    },
    {
      "bufferView": 1,
      "byteOffset": 320,
      "componentType": 5126,
      "count": 20,
      "max": [
        0.6271645426750183,
        0.6204795837402344
      ],
      "min": [
        0.38403332233428955,
        0.41449403762817383
      ],
      "type": "VEC2"
    },
    {
      "bufferView": 0,
      "byteOffset": 120,
      "componentType": 5125,
      "count": 30,
      "type": "SCALAR"
    },
    {
      "bufferView": 2,
      "byteOffset": 960,
      "componentType": 5126,
      "count": 16,
      "max": [
        37.5,
        35.5,
        -1.9999998807907104
      ],
      "min": [
        -37.5,
        -35.82805252075195,
        -1.9999998807907104
      ],
      "type": "VEC3"
    },
    {
      "bufferView": 2,
      "byteOffset": 1152,
      "componentType": 5126,
      "count": 16,
      "max": [
        1.2650162695138079e-08,
        0.0,
        1.0
      ],
      "min": [
        -1.2650162695138079e-08,
        0.0,
        1.0
      ],
      "type": "VEC3"
    },
    {
      "bufferView": 3,
      "byteOffset": 320,
      "componentType": 5126,
      "count": 16,
      "max": [
        1.0,
        4.718554009741638e-07,
        1.2650161806959659e-08,
        1.0
      ],
      "min": [
        1.0,
        -6.720131864312862e-07,
        -1.2650164471494918e-08,
        1.0
      ],
      "type": "VEC4"
    },
    {
      "bufferView": 1,
      "byteOffset": 480,
      "componentType": 5126,
      "count": 16,
      "max": [
        0.964123010635376,
        0.9706153869628906
      ],
      "min": [
        0.04707483947277069,
        0.06435812264680862
      ],
      "type": "VEC2"
    },
    {
      "bufferView": 1,
      "byteOffset": 608,
      "componentType": 5126,
      "count": 16,
      "max": [
        0.964123010635376,
        0.9706153869628906
      ],
      "min": [
        0.04707483947277069,
        0.06435812264680862
      ],
      "type": "VEC2"
    },
    {
      "bufferView": 0,
      "byteOffset": 240,
      "componentType": 5125,
      "count": 24,
      "type": "SCALAR"
    },
    {
      "bufferView": 2,
      "byteOffset": 1344,
      "componentType": 5126,
      "count": 2231,
      "max": [
        11.99824047088623,
        10.052234649658203,
        -0.637158989906311
      ],
      "min": [
        -12.100502014160156,
        -11.270448684692383,
        -2.873126983642578
      ],
      "type": "VEC3"
    },
    {
      "bufferView": 2,
      "byteOffset": 28116,
      "componentType": 5126,
      "count": 2231,
      "max": [
        1.0,
        1.0,
        0.9877907037734985
      ],
      "min": [
        -1.0,
        -1.0,
        -0.9983181953430176
      ],
      "type": "VEC3"
    },
    {
      "bufferView": 1,
      "byteOffset": 736,
      "componentType": 5126,
      "count": 2231,
      "max": [
        0.5887385606765747,
        0.5887385606765747
      ],
      "min": [
        0.4112614393234253,
        0.4112614393234253
      ],
      "type": "VEC2"
    },
    {
      "bufferView": 1,
      "byteOffset": 18584,
      "componentType": 5126,
      "count": 2231,
      "max": [
        0.5887385606765747,
        0.5887385606765747
      ],
      "min": [
        0.4112614393234253,
        0.4112614393234253
      ],
      "type": "VEC2"
    },
    {
      "bufferView": 0,
      "byteOffset": 336,
      "componentType": 5125,
      "count": 12672,
      "type": "SCALAR"
    },
    {
      "bufferView": 2,
      "byteOffset": 54888,
      "componentType": 5126,
      "count": 2040,
      "max": [
        13.144306182861328,
        11.132169723510742,
        -4.679161071777344
      ],
      "min": [
        -11.0897855758667,
        -10.393632888793945,
        -5.521717071533203
      ],
      "type": "VEC3"
    },
    {
      "bufferView": 2,
      "byteOffset": 79368,
      "componentType": 5126,
      "count": 2040,
      "max": [
        1.0,
        1.0,
        1.0
      ],
      "min": [
        -1.0,
        -1.0,
        -1.0
      ],
      "type": "VEC3"
    },
    {
      "bufferView": 1,
      "byteOffset": 36432,
      "componentType": 5126,
      "count": 2040,
      "max": [
        0.875,
        1.0
      ],
      "min": [
        0.125,
        0.0
      ],
      "type": "VEC2"
    },
    {
      "bufferView": 0,
      "byteOffset": 51024,
      "componentType": 5125,
      "count": 3060,
      "type": "SCALAR"
    },
    {
      "bufferView": 2,
      "byteOffset": 103848,
      "componentType": 5126,
      "count": 816,
      "max": [
        12.879833221435547,
        10.928729057312012,
        -4.679161071777344
      ],
      "min": [
        -11.0897855758667,
        -10.190192222595215,
        -5.521717071533203
      ],
      "type": "VEC3"
    },
    {
      "bufferView": 2,
      "byteOffset": 113640,
      "componentType": 5126,
      "count": 816,
      "max": [
        1.0,
        1.0,
        1.0
      ],
      "min": [
        -1.0,
        -1.0,
        -1.0
      ],
      "type": "VEC3"
    },
    {
      "bufferView": 1,
      "byteOffset": 52752,
      "componentType": 5126,
      "count": 816,
      "max": [
        0.875,
        0.6666666269302368
      ],
      "min": [
        0.125,
        0.0833333283662796
      ],
      "type": "VEC2"
    },
    {
      "bufferView": 0,
      "byteOffset": 63264,
      "componentType": 5125,
      "count": 1224,
      "type": "SCALAR"
    },
    {
      "bufferView": 2,
      "byteOffset": 123432,
      "componentType": 5126,
      "count": 65532,
      "max": [
        34.49162292480469,
        32.76860809326172,
        -4.600000381469727
      ],
      "min": [
        -34.90700912475586,
        -33.20207977294922,
        -8.0
      ],
      "type": "VEC3"
    },
    {
      "bufferView": 2,
      "byteOffset": 909816,
      "componentType": 5126,
      "count": 65532,
      "max": [
        0.7178235054016113,
        0.7178435921669006,
        0.6962653994560242
      ],
      "min": [
        -0.7178283929824829,
        -0.7178230881690979,
        -0.6962653398513794
      ],
      "type": "VEC3"
    },
    {
      "bufferView": 1,
      "byteOffset": 59280,
      "componentType": 5126,
      "count": 65532,
      "max": [
        1.0,
        1.0
      ],
      "min": [
        0.0,
        0.01000000536441803
      ],
      "type": "VEC2"
    },
    {
      "bufferView": 0,
      "byteOffset": 68160,
      "componentType": 5125,
      "count": 190704,
      "type": "SCALAR"
    },
    {
      "bufferView": 2,
      "byteOffset": 1696200,
      "componentType": 5126,
      "count": 57794,
      "max": [
        34.49162292480469,
        32.76860809326172,
        -4.600000381469727
      ],
      "min": [
        -34.90700912475586,
        -33.20207977294922,
        -8.0
      ],
      "type": "VEC3"
    },
    {
      "bufferView": 2,
      "byteOffset": 2389728,
      "componentType": 5126,
      "count": 57794,
      "max": [
        0.7178235054016113,
        0.7178435921669006,
        0.6962653994560242
      ],
      "min": [
        -0.7178283929824829,
        -0.7178230881690979,
        -0.6962653398513794
      ],
      "type": "VEC3"
    },
    {
      "bufferView": 1,
      "byteOffset": 583536,
      "componentType": 5126,
      "count": 57794,
      "max": [
        1.0,
        1.0
      ],
      "min": [
        0.0,
        0.01000000536441803
      ],
      "type": "VEC2"
    },
    {
      "bufferView": 0,
      "byteOffset": 830976,
      "componentType": 5125,
      "count": 170664,
      "type": "SCALAR"
    },
    {
      "bufferView": 2,
      "byteOffset": 3083256,
      "componentType": 5126,
      "count": 2231,
      "max": [
        1.1447367668151855,
        0.06000007316470146,
        0.05938931182026863
      ],
      "min": [
        -1.1432462930679321,
        -1.7752766609191895,
        -0.059389322996139526
      ],
      "type": "VEC3"
    },
    {
      "bufferView": 2,
      "byteOffset": 3110028,
      "componentType": 5126,
      "count": 2231,
      "max": [
        1.0,
        1.0,
        0.993369460105896
      ],
      "min": [
        -1.0,
        -1.0,
        -0.9933691024780273
      ],
      "type": "VEC3"
    },
    {
      "bufferView": 1,
      "byteOffset": 1045888,
      "componentType": 5126,
      "count": 2231,
      "max": [
        1.0,
        1.0
      ],
      "min": [
        0.0,
        0.0
      ],
      "type": "VEC2"
    },
    {
      "bufferView": 0,
      "byteOffset": 1513632,
      "componentType": 5125,
      "count": 12672,
      "type": "SCALAR"
    }
  ],
  "asset": {
    "extras": {
      "author": "Moonway 3D (https://sketchfab.com/moonway3d)",
      "license": "CC-BY-4.0 (http://creativecommons.org/licenses/by/4.0/)",
      "source": "https://sketchfab.com/3d-models/free-realistic-intel-cpu-core-2-mobile-t6600-0aeab2fbb5a14f90ab8261bc85adfaf8",
      "title": "(FREE) Realistic intel cpu core 2 mobile T6600"
    },
    "generator": "Sketchfab-15.29.0",
    "version": "2.0"
  },
  "bufferViews": [
    {
      "buffer": 0,
      "byteLength": 1564320,
      "name": "floatBufferViews",
      "target": 34963
    },
    {
      "buffer": 0,
      "byteLength": 1063736,
      "byteOffset": 1564320,
      "byteStride": 8,
      "name": "floatBufferViews",
      "target": 34962
    },
    {
      "buffer": 0,
      "byteLength": 3136800,
      "byteOffset": 2628056,
      "byteStride": 12,
      "name": "floatBufferViews",
      "target": 34962
    },
    {
      "buffer": 0,
      "byteLength": 576,
      "byteOffset": 5764856,
      "byteStride": 16,
      "name": "floatBufferViews",
      "target": 34962
    }
  ],
  "buffers": [
    {
      "byteLength": 5765432,
      "uri": "scene.bin"
    }
  ],
  "extensionsUsed": [
    "KHR_materials_specular"
  ],
  "images": [
    {
      "uri": "textures/side_baseColor.png"
    },
    {
      "uri": "textures/side_normal.png"
    },
    {
      "uri": "textures/bottom_baseColor.png"
    },
    {
      "uri": "textures/bottom_normal.png"
    },
    {
      "uri": "textures/material_3_baseColor.png"
    },
    {
      "uri": "textures/material_3_normal.png"
    }
  ],
  "materials": [
    {
      "doubleSided": true,
      "name": "side",
      "normalTexture": {
        "index": 1
      },
      "pbrMetallicRoughness": {
        "baseColorTexture": {
          "index": 0
        },
        "metallicFactor": 0.0,
        "roughnessFactor": 0.8211145618000169
      }
    },
    {
      "doubleSided": true,
      "name": "bottom",
      "normalTexture": {
        "index": 3
      },
      "pbrMetallicRoughness": {
        "baseColorTexture": {
          "index": 2
        },
        "metallicFactor": 0.0,
        "roughnessFactor": 0.8211145618000169
      }
    },
    {
      "doubleSided": true,
      "name": "material",
      "pbrMetallicRoughness": {
        "baseColorFactor": [
          0.8,
          0.8,
          0.8,
          1.0
        ],
        "roughnessFactor": 0.0
      }
    },
    {
      "doubleSided": true,
      "name": "material_3",
      "normalTexture": {
        "index": 5
      },
      "pbrMetallicRoughness": {
        "baseColorTexture": {
          "index": 4
        },
        "metallicFactor": 0.0,
        "roughnessFactor": 0.8211145618000169
      }
    },
    {
      "doubleSided": true,
      "extensions": {
        "KHR_materials_specular": {
          "specularColorFactor": [
            1.0,
            1.0,
            1.0
          ],
          "specularFactor": 0.49828723287537635
        }
      },
      "name": "top.001",
      "pbrMetallicRoughness": {
        "baseColorFactor": [
          0.09503719215562158,
          0.09503719215562158,
          0.09503719215562158,
          1.0
        ],
        "roughnessFactor": 0.8211145618000169
      }
    },
    {
      "doubleSided": true,
      "name": "resistor-gray",
      "pbrMetallicRoughness": {
        "baseColorFactor": [
          0.8,
          0.8,
          0.8,
          1.0
        ],
        "metallicFactor": 0.0,
        "roughnessFactor": 0.7592283223666554
      }
    },
    {
      "doubleSided": true,
      "name": "resistoe-brown",
      "pbrMetallicRoughness": {
        "baseColorFactor": [
          0.467199,
          0.260572,
          0.144044,
          1.0
        ],
        "metallicFactor": 0.0,
        "roughnessFactor": 0.9337928046957088
      }
    },
    {
      "doubleSided": true,
      "name": "gold-pins",
      "pbrMetallicRoughness": {
        "baseColorFactor": [
          1.0,
          0.6453199966230172,
          0.12856811131236873,
          1.0
        ],
        "metallicFactor": 0.9980982799185673,
        "roughnessFactor": 0.001901720081432745
      }
    },
    {
      "alphaMode": "BLEND",
      "doubleSided": true,
      "name": "die-filling",
      "pbrMetallicRoughness": {
        "baseColorFactor": [
          0.0420268,
          0.0420268,
          0.0420268,
          0.0
        ],
        "metallicFactor": 0.0,
        "roughnessFactor": 0.9906025218323212
      }
    }
  ],
  "meshes": [
    {
      "name": "cpu-pcb.001_side_0",
      "primitives": [
        {
          "attributes": {
            "NORMAL": 1,
            "POSITION": 0,
            "TANGENT": 2,
            "TEXCOORD_0": 3,
            "TEXCOORD_1": 4
          },
          "indices": 5,
          "material": 0,
          "mode": 4
        }
      ]
    },
    {
      "name": "cpu-pcb.001_bottom_0",
      "primitives": [
        {
          "attributes": {
            "NORMAL": 7,
            "POSITION": 6,
            "TANGENT": 8,
            "TEXCOORD_0": 9,
            "TEXCOORD_1": 10
          },
          "indices": 11,
          "material": 1,
          "mode": 4
        }
      ]
    },
    {
      "name": "cpu-pcb.001_die_0",
      "primitives": [
        {
          "attributes": {
            "NORMAL": 13,
            "POSITION": 12,
            "TEXCOORD_0": 14
          },
          "indices": 15,
          "material": 2,
          "mode": 4
        }
      ]
    },
    {
      "name": "cpu-pcb.001_top_0",
      "primitives": [
        {
          "attributes": {
            "NORMAL": 17,
            "POSITION": 16,
            "TANGENT": 18,
            "TEXCOORD_0": 19,
            "TEXCOORD_1": 20
          },
          "indices": 21,
          "material": 3,
          "mode": 4
        }
      ]
    },
    {
      "name": "cpu-pcb.001_top.001_0",
      "primitives": [
        {
          "attributes": {
            "NORMAL": 23,
            "POSITION": 22,
            "TEXCOORD_0": 24,
            "TEXCOORD_1": 25
          },
          "indices": 26,
          "material": 4,
          "mode": 4
        }
      ]
    },
    {
      "name": "cpu-pcb.001_resistor-gray_0",
      "primitives": [
        {
          "attributes": {
            "NORMAL": 28,
            "POSITION": 27,
            "TEXCOORD_0": 29
          },
          "indices": 30,
          "material": 5,
          "mode": 4
        }
      ]
    },
    {
      "name": "cpu-pcb.001_resistoe-brown_0",
      "primitives": [
        {
          "attributes": {
            "NORMAL": 32,
            "POSITION": 31,
            "TEXCOORD_0": 33
          },
          "indices": 34,
          "material": 6,
          "mode": 4
        }
      ]
    },
    {
      "name": "cpu-pcb.001_gold-pins_0",
      "primitives": [
        {
          "attributes": {
            "NORMAL": 36,
            "POSITION": 35,
            "TEXCOORD_0": 37
          },
          "indices": 38,
          "material": 7,
          "mode": 4
        }
      ]
    },
    {
      "name": "cpu-pcb.001_gold-pins_0",
      "primitives": [
        {
          "attributes": {
            "NORMAL": 40,
            "POSITION": 39,
            "TEXCOORD_0": 41
          },
          "indices": 42,
          "material": 7,
          "mode": 4
        }
      ]
    },
    {
      "name": "die-filling-curve_die-filling_0",
      "primitives": [
        {
          "attributes": {
            "NORMAL": 44,
            "POSITION": 43,
            "TEXCOORD_0": 45
          },
          "indices": 46,
          "material": 8,
          "mode": 4
        }
      ]
    }
  ],
  "nodes": [
    {
      "children": [
        1
      ],
      "matrix": [
        1.0,
        0.0,
        0.0,
        0.0,
        0.0,
        2.220446049250313e-16,
        -1.0,
        0.0,
        0.0,
        1.0,
        2.220446049250313e-16,
        0.0,
        0.0,
        0.0,
        0.0,
        1.0
      ],
      "name": "Sketchfab_model"
    },
    {
      "children": [
        2
      ],
      "matrix": [
        0.009999999776482582,
        0.0,
        0.0,
        0.0,
        0.0,
        0.0,
        0.009999999776482582,
        0.0,
        0.0,
        -0.009999999776482582,
        0.0,
        0.0,
        0.0,
        0.0,
        0.0,
        1.0
      ],
      "name": "96a0fc1058d04061a8af1e45dfc019a8.fbx"
    },
    {
      "children": [
        3,
        13
      ],
      "name": "RootNode"
    },
    {
      "children": [
        4,
        5,
        6,
        7,
        8,
        9,
        10,
        11,
        12
      ],
      "matrix": [
        100.0,
        0.0,
        0.0,
        0.0,
        0.0,
        -1.629206793918314e-05,
        -99.99999999999868,
        0.0,
        0.0,
        99.99999999999868,
        -1.629206793918314e-05,
        0.0,
        0.0,
        0.0,
        0.0,
        1.0
      ],
      "name": "cpu-pcb.001"
    },
    {
      "mesh": 0,
      "name": "cpu-pcb.001_side_0"
    },
    {
      "mesh": 1,
      "name": "cpu-pcb.001_bottom_0"
    },
    {
      "mesh": 2,
      "name": "cpu-pcb.001_die_0"
    },
    {
      "mesh": 3,
      "name": "cpu-pcb.001_top_0"
    },
    {
      "mesh": 4,
      "name": "cpu-pcb.001_top.001_0"
    },
    {
      "mesh": 5,
      "name": "cpu-pcb.001_resistor-gray_0"
    },
    {
      "mesh": 6,
      "name": "cpu-pcb.001_resistoe-brown_0"
    },
    {
      "mesh": 7,
      "name": "cpu-pcb.001_gold-pins_0"
    },
    {
      "mesh": 8,
      "name": "cpu-pcb.001_gold-pins_0"
    },
    {
      "children": [
        14
      ],
      "matrix": [
        967.3621826171875,
        0.0,
        0.0,
        0.0,
        0.0,
        -0.00015760330400995708,
        -967.3621826171748,
        0.0,
        0.0,
        1868.2139892577877,
        -0.0003043706923792065,
        0.0,
        0.0,
        -174.6678466796875,
        -773.5842895507813,
        1.0
      ],
      "name": "die-filling-curve"
    },
    {
      "mesh": 9,
      "name": "die-filling-curve_die-filling_0"
    }
  ],
  "samplers": [
    {
      "magFilter": 9729,
      "minFilter": 9987,
      "wrapS": 10497,
      "wrapT": 10497
    }
  ],
  "scene": 0,
  "scenes": [
    {
      "name": "Sketchfab_Scene",
      "nodes": [
        0
      ]
    }
  ],
  "textures": [
    {
      "sampler": 0,
      "source": 0
    },
    {
      "sampler": 0,
      "source": 1
    },
    {
      "sampler": 0,
      "source": 2
    },
    {
      "sampler": 0,
      "source": 3
    },
    {
      "sampler": 0,
      "source": 4
    },
    {
      "sampler": 0,
      "source": 5
    }
  ]
}
