{
  "accessors": [
    {
      "bufferView": 2,
      "componentType": 5126,
      "count": 1496,
      "max": [
        -0.10486800223588943,
        0.8951320052146912,
        0.04852199926972389
      ],
      "min": [
        -3.09135103225708,
        -0.0951320007443428,
        -0.03999999910593033
      ],
      "type": "VEC3"
    },
    {
      "bufferView": 2,
      "byteOffset": 17952,
      "componentType": 5126,
      "count": 1496,
      "max": [
        0.9923075437545776,
        0.9923075437545776,
        0.9952054023742676
      ],
      "min": [
        -0.9924086928367615,
        -0.9922053217887878,
        0.07051205635070801
      ],
      "type": "VEC3"
    },
    {
      "bufferView": 3,
      "componentType": 5126,
      "count": 1496,
      "max": [
        0.3174876272678375,
        -0.07289541512727737,
        0.9971426129341125,
        1.0
      ],
      "min": [
        -0.30229058861732483,
        -0.9997449517250061,
        -0.9971365332603455,
        1.0
      ],
      "type": "VEC4"
    },
    {
      "bufferView": 1,
      "componentType": 5126,
      "count": 1496,
      "max": [
        0.8010720014572144,
        0.999750018119812
      ],
      "min": [
        0.0002500000118743628,
        0.0002500000118743628
      ],
      "type": "VEC2"
    },
    {
      "bufferView": 0,
      "componentType": 5125,
      "count": 8250,
      "type": "SCALAR"
    },
    {
      "bufferView": 2,
      "byteOffset": 35904,
      "componentType": 5126,
      "count": 675,
      "max": [
        0.194131001830101,
        0.997497022151947,
        -0.03999999910593033
      ],
      "min": [
        -3.1941308975219727,
        -0.19749699532985687,
        -0.20000000298023224
      ],
      "type": "VEC3"
    },
    {
      "bufferView": 2,
      "byteOffset": 44004,
      "componentType": 5126,
      "count": 675,
      "max": [
        1.0,
        1.0,
        1.0
      ],
      "min": [
        -1.0,
        -1.0,
        -1.0
      ],
      "type": "VEC3"
    },
    {
      "bufferView": 3,
      "byteOffset": 23936,
      "componentType": 5126,
      "count": 675,
      "max": [
        0.9999969005584717,
        1.0,
        1.0,
        1.0
      ],
      "min": [
        -0.9778239130973816,
        -1.0,
        -1.0,
        1.0
      ],
      "type": "VEC4"
    },
    {
      "bufferView": 1,
      "byteOffset": 11968,
      "componentType": 5126,
      "count": 675,
      "max": [
        0.8806589841842651,
        0.9998049736022949
      ],
      "min": [
        0.00019500000053085387,
        0.00019500000053085387
      ],
      "type": "VEC2"
    },
    {
      "bufferView": 0,
      "byteOffset": 33000,
      "componentType": 5125,
      "count": 3168,
      "type": "SCALAR"
    },
    {
      "bufferView": 2,
      "byteOffset": 52104,
      "componentType": 5126,
      "count": 7764,
      "max": [
        0.0951320007443428,
        0.8951320052146912,
        0.04852199926972389
      ],
      "min": [
        -3.0951321125030518,
        -0.0951320007443428,
        -0.03999999910593033
      ],
      "type": "VEC3"
    },
    {
      "bufferView": 2,
      "byteOffset": 145272,
      "componentType": 5126,
      "count": 7764,
      "max": [
        0.9922053217887878,
        0.9922053217887878,
        0.9942507743835449
      ],
      "min": [
        -0.9922053217887878,
        -0.9922053217887878,
        0.07051205635070801
      ],
      "type": "VEC3"
    },
    {
      "bufferView": 3,
      "byteOffset": 34736,
      "componentType": 5126,
      "count": 7764,
      "max": [
        0.9997448325157166,
        0.3153582215309143,
        0.9971361756324768,
        1.0
      ],
      "min": [
        -0.9997449517250061,
        -0.3154071867465973,
        -0.9971361756324768,
        1.0
      ],
      "type": "VEC4"
    },
    {
      "bufferView": 1,
      "byteOffset": 17368,
      "componentType": 5126,
      "count": 7764,
      "max": [
        0.9992939829826355,
        0.9992939829826355
      ],
      "min": [
        0.0007060000207275152,
        0.0007060000207275152
      ],
      "type": "VEC2"
    },
    {
      "bufferView": 0,
      "byteOffset": 45672,
      "componentType": 5125,
      "count": 42750,
      "type": "SCALAR"
    }
  ],
  "asset": {
    "extras": {
      "author": "M.Reslan (https://sketchfab.com/mreslan)",
      "license": "CC-BY-4.0 (http://creativecommons.org/licenses/by/4.0/)",
      "source": "https://sketchfab.com/3d-models/mechanical-keyboard-aesthetic-44bb12d306864e2cb4256a61d4168942",
      "title": "Mechanical Keyboard - Aesthetic"
    },
    "generator": "Sketchfab-13.12.0",
    "version": "2.0"
  },
  "bufferViews": [
    {
      "buffer": 0,
      "byteLength": 216672,
      "name": "floatBufferViews",
      "target": 34963
    },
    {
      "buffer": 0,
      "byteLength": 79480,
      "byteOffset": 216672,
      "byteStride": 8,
      "name": "floatBufferViews",
      "target": 34962
    },
    {
      "buffer": 0,
      "byteLength": 238440,
      "byteOffset": 296152,
      "byteStride": 12,
      "name": "floatBufferViews",
      "target": 34962
    },
    {
      "buffer": 0,
      "byteLength": 158960,
      "byteOffset": 534592,
      "byteStride": 16,
      "name": "floatBufferViews",
      "target": 34962
    }
  ],
  "buffers": [
    {
      "byteLength": 693552,
      "uri": "scene.bin"
    }
  ],
  "images": [
    {
      "uri": "textures/Big_Buttons_baseColor.jpeg"
    },
    {
      "uri": "textures/Big_Buttons_metallicRoughness.png"
    },
    {
      "uri": "textures/Big_Buttons_normal.png"
    },
    {
      "uri": "textures/Chassis_baseColor.jpeg"
    },
    {
      "uri": "textures/Chassis_metallicRoughness.png"
    },
    {
      "uri": "textures/Chassis_normal.png"
    },
    {
      "uri": "textures/Small_Buttons_baseColor.jpeg"
    },
    {
      "uri": "textures/Small_Buttons_metallicRoughness.png"
    },
    {
      "uri": "textures/Small_Buttons_normal.png"
    }
  ],
  "materials": [
    {
      "doubleSided": true,
      "name": "Big_Buttons",
      "normalTexture": {
        "index": 2
      },
      "occlusionTexture": {
        "index": 1
      },
      "pbrMetallicRoughness": {
        "baseColorTexture": {
          "index": 0
        },
        "metallicRoughnessTexture": {
          "index": 1
        }
      }
    },
    {
      "doubleSided": true,
      "name": "Chassis",
      "normalTexture": {
        "index": 5
      },
      "occlusionTexture": {
        "index": 4
      },
      "pbrMetallicRoughness": {
        "baseColorTexture": {
          "index": 3
        },
        "metallicRoughnessTexture": {
          "index": 4
        }
      }
    },
    {
      "doubleSided": true,
      "name": "Small_Buttons",
      "normalTexture": {
        "index": 8
      },
      "occlusionTexture": {
        "index": 7
      },
      "pbrMetallicRoughness": {
        "baseColorTexture": {
          "index": 6
        },
        "metallicRoughnessTexture": {
          "index": 7
        }
      }
    }
  ],
  "meshes": [
    {
      "name": "Object_0",
      "primitives": [
        {
          "attributes": {
            "NORMAL": 1,
            "POSITION": 0,
            "TANGENT": 2,
            "TEXCOORD_0": 3
          },
          "indices": 4,
          "material": 0,
          "mode": 4
        }
      ]
    },
    {
      "name": "Object_1",
      "primitives": [
        {
          "attributes": {
            "NORMAL": 6,
            "POSITION": 5,
            "TANGENT": 7,
            "TEXCOORD_0": 8
          },
          "indices": 9,
          "material": 1,
          "mode": 4
        }
      ]
    },
    {
      "name": "Object_2",
      "primitives": [
        {
          "attributes": {
            "NORMAL": 11,
            "POSITION": 10,
            "TANGENT": 12,
            "TEXCOORD_0": 13
          },
          "indices": 14,
          "material": 2,
          "mode": 4
        }
      ]
    }
  ],
  "nodes": [
    {
      "children": [
        1
      ],
      "matrix": [
        1.0,
        0.0,
        0.0,
        0.0,
        0.0,
        2.220446049250313e-16,
        -1.0,
        0.0,
        0.0,
        1.0,
        2.220446049250313e-16,
        0.0,
        0.0,
        0.0,
        0.0,
        1.0
      ],
      "name": "Sketchfab_model"
    },
    {
      "children": [
        2,
        3,
        4
      ],
      "name": "KEYBOARD_OBJ.obj.cleaner.materialmerger.gles"
    },
    {
      "mesh": 0,
      "name": "Object_2"
    },
    {
      "mesh": 1,
      "name": "Object_3"
    },
    {
      "mesh": 2,
      "name": "Object_4"
    }
  ],
  "samplers": [
    {
      "magFilter": 9729,
      "minFilter": 9987,
      "wrapS": 10497,
      "wrapT": 10497
    }
  ],
  "scene": 0,
  "scenes": [
    {
      "name": "Sketchfab_Scene",
      "nodes": [
        0
      ]
    }
  ],
  "textures": [
    {
      "sampler": 0,
      "source": 0
    },
    {
      "sampler": 0,
      "source": 1
    },
    {
      "sampler": 0,
      "source": 2
    },
    {
      "sampler": 0,
      "source": 3
    },
    {
      "sampler": 0,
      "source": 4
    },
    {
      "sampler": 0,
      "source": 5
    },
    {
      "sampler": 0,
      "source": 6
    },
    {
      "sampler": 0,
      "source": 7
    },
    {
      "sampler": 0,
      "source": 8
    }
  ]
}
