{
  "accessors": [
    {
      "bufferView": 1,
      "componentType": 5126,
      "count": 24,
      "max": [
        63.0,
        -4.0,
        -25.0
      ],
      "min": [
        17.0,
        -6.0,
        -30.0
      ],
      "type": "VEC3"
    },
    {
      "bufferView": 1,
      "byteOffset": 288,
      "componentType": 5126,
      "count": 24,
      "max": [
        1.0,
        0.9999999403953552,
        1.0
      ],
      "min": [
        -1.0,
        -0.9999999403953552,
        -1.0
      ],
      "type": "VEC3"
    },
    {
      "bufferView": 0,
      "componentType": 5125,
      "count": 36,
      "type": "SCALAR"
    },
    {
      "bufferView": 1,
      "byteOffset": 576,
      "componentType": 5126,
      "count": 9670,
      "max": [
        59.0,
        -2.25,
        -24.49799919128418
      ],
      "min": [
        21.5,
        -2.75,
        -29.5
      ],
      "type": "VEC3"
    },
    {
      "bufferView": 1,
      "byteOffset": 116616,
      "componentType": 5126,
      "count": 9670,
      "max": [
        1.0,
        1.0,
        1.0
      ],
      "min": [
        -1.0,
        -1.0,
        -1.0
      ],
      "type": "VEC3"
    },
    {
      "bufferView": 0,
      "byteOffset": 144,
      "componentType": 5125,
      "count": 45315,
      "type": "SCALAR"
    },
    {
      "bufferView": 1,
      "byteOffset": 232656,
      "componentType": 5126,
      "count": 5161,
      "max": [
        69.91500091552734,
        -7.0,
        52.5
      ],
      "min": [
        38.0,
        -7.5,
        -12.5
      ],
      "type": "VEC3"
    },
    {
      "bufferView": 1,
      "byteOffset": 294588,
      "componentType": 5126,
      "count": 5161,
      "max": [
        1.0,
        0.00012733545736409724,
        1.0
      ],
      "min": [
        -1.0,
        -1.0,
        -1.0
      ],
      "type": "VEC3"
    },
    {
      "bufferView": 0,
      "byteOffset": 181404,
      "componentType": 5125,
      "count": 15099,
      "type": "SCALAR"
    },
    {
      "bufferView": 1,
      "byteOffset": 356520,
      "componentType": 5126,
      "count": 6674,
      "max": [
        43.0,
        -7.0,
        41.07699966430664
      ],
      "min": [
        20.194000244140625,
        -7.5,
        -7.335000038146973
      ],
      "type": "VEC3"
    },
    {
      "bufferView": 1,
      "byteOffset": 436608,
      "componentType": 5126,
      "count": 6674,
      "max": [
        1.0,
        0.0002874579222407192,
        1.0
      ],
      "min": [
        -1.0,
        -1.0,
        -1.0
      ],
      "type": "VEC3"
    },
    {
      "bufferView": 0,
      "byteOffset": 241800,
      "componentType": 5125,
      "count": 18888,
      "type": "SCALAR"
    },
    {
      "bufferView": 1,
      "byteOffset": 516696,
      "componentType": 5126,
      "count": 9835,
      "max": [
        80.0,
        -0.0,
        70.0
      ],
      "min": [
        10.0,
        -7.0,
        -30.0
      ],
      "type": "VEC3"
    },
    {
      "bufferView": 1,
      "byteOffset": 634716,
      "componentType": 5126,
      "count": 9835,
      "max": [
        1.0,
        1.0,
        1.0
      ],
      "min": [
        -1.0,
        -1.0,
        -1.0
      ],
      "type": "VEC3"
    },
    {
      "bufferView": 0,
      "byteOffset": 317352,
      "componentType": 5125,
      "count": 31641,
      "type": "SCALAR"
    },
    {
      "bufferView": 1,
      "byteOffset": 752736,
      "componentType": 5126,
      "count": 2214,
      "max": [
        59.0,
        -1.0,
        -24.5
      ],
      "min": [
        21.0,
        -3.0,
        -30.0
      ],
      "type": "VEC3"
    },
    {
      "bufferView": 1,
      "byteOffset": 779304,
      "componentType": 5126,
      "count": 2214,
      "max": [
        1.0,
        1.0,
        1.0
      ],
      "min": [
        -1.0,
        -1.0,
        -1.0
      ],
      "type": "VEC3"
    },
    {
      "bufferView": 0,
      "byteOffset": 443916,
      "componentType": 5125,
      "count": 6585,
      "type": "SCALAR"
    }
  ],
  "asset": {
    "extras": {
      "author": "GmedranoTIC (https://sketchfab.com/gmedranotic)",
      "license": "CC-BY-4.0 (http://creativecommons.org/licenses/by/4.0/)",
      "source": "https://sketchfab.com/3d-models/ssd-sata-2-5-7mm-1e35cdc38fe34089813551a08767b104",
      "title": "SSD SATA 2 5 7mm"
    },
    "generator": "Sketchfab-12.68.0",
    "version": "2.0"
  },
  "bufferViews": [
    {
      "buffer": 0,
      "byteLength": 470256,
      "name": "floatBufferViews",
      "target": 34963
    },
    {
      "buffer": 0,
      "byteLength": 805872,
      "byteOffset": 470256,
      "byteStride": 12,
      "name": "floatBufferViews",
      "target": 34962
    }
  ],
  "buffers": [
    {
      "byteLength": 1276128,
      "uri": "scene.bin"
    }
  ],
  "materials": [
    {
      "doubleSided": true,
      "name": "color_12568524",
      "pbrMetallicRoughness": {
        "baseColorFactor": [
          0.74902,
          0.780392,
          0.8,
          1.0
        ],
        "metallicFactor": 0.0
      }
    },
    {
      "doubleSided": true,
      "name": "color_14789940",
      "pbrMetallicRoughness": {
        "baseColorFactor": [
          0.882353,
          0.678431,
          0.203922,
          1.0
        ],
        "metallicFactor": 0.0
      }
    },
    {
      "doubleSided": true,
      "name": "color_15277357",
      "pbrMetallicRoughness": {
        "baseColorFactor": [
          0.913725,
          0.113725,
          0.176471,
          1.0
        ],
        "metallicFactor": 0.0
      }
    },
    {
      "doubleSided": true,
      "name": "color_16448250",
      "pbrMetallicRoughness": {
        "baseColorFactor": [
          0.980392,
          0.980392,
          0.980392,
          1.0
        ],
        "metallicFactor": 0.0
      }
    },
    {
      "doubleSided": true,
      "name": "color_2829873",
      "pbrMetallicRoughness": {
        "baseColorFactor": [
          0.168627,
          0.180392,
          0.192157,
          1.0
        ],
        "metallicFactor": 0.0
      }
    },
    {
      "doubleSided": true,
      "name": "color_6383466",
      "pbrMetallicRoughness": {
        "baseColorFactor": [
          0.380392,
          0.403922,
          0.415686,
          1.0
        ],
        "metallicFactor": 0.0
      }
    }
  ],
  "meshes": [
    {
      "name": "Object_0",
      "primitives": [
        {
          "attributes": {
            "NORMAL": 1,
            "POSITION": 0
          },
          "indices": 2,
          "material": 0,
          "mode": 4
        }
      ]
    },
    {
      "name": "Object_1",
      "primitives": [
        {
          "attributes": {
            "NORMAL": 4,
            "POSITION": 3
          },
          "indices": 5,
          "material": 1,
          "mode": 4
        }
      ]
    },
    {
      "name": "Object_2",
      "primitives": [
        {
          "attributes": {
            "NORMAL": 7,
            "POSITION": 6
          },
          "indices": 8,
          "material": 2,
          "mode": 4
        }
      ]
    },
    {
      "name": "Object_3",
      "primitives": [
        {
          "attributes": {
            "NORMAL": 10,
            "POSITION": 9
          },
          "indices": 11,
          "material": 3,
          "mode": 4
        }
      ]
    },
    {
      "name": "Object_4",
      "primitives": [
        {
          "attributes": {
            "NORMAL": 13,
            "POSITION": 12
          },
          "indices": 14,
          "material": 4,
          "mode": 4
        }
      ]
    },
    {
      "name": "Object_5",
      "primitives": [
        {
          "attributes": {
            "NORMAL": 16,
            "POSITION": 15
          },
          "indices": 17,
          "material": 5,
          "mode": 4
        }
      ]
    }
  ],
  "nodes": [
    {
      "children": [
        1
      ],
      "matrix": [
        -1.0,
        7.268036613529266e-16,
        -4.412768222371618e-16,
        0.0,
        -7.245529889329534e-16,
        -0.9999871253967285,
        -0.005079197231680377,
        0.0,
        -4.449627125769186e-16,
        -0.005079197231680377,
        0.9999871253967285,
        0.0,
        90.00005340576172,
        16.351646423339847,
        -16.268804550170895,
        1.0
      ],
      "name": "Sketchfab_model"
    },
    {
      "children": [
        2,
        3,
        4,
        5,
        6,
        7
      ],
      "name": "tinker.obj.cleaner.materialmerger.gles"
    },
    {
      "mesh": 0,
      "name": "Object_2"
    },
    {
      "mesh": 1,
      "name": "Object_3"
    },
    {
      "mesh": 2,
      "name": "Object_4"
    },
    {
      "mesh": 3,
      "name": "Object_5"
    },
    {
      "mesh": 4,
      "name": "Object_6"
    },
    {
      "mesh": 5,
      "name": "Object_7"
    }
  ],
  "scene": 0,
  "scenes": [
    {
      "name": "Sketchfab_Scene",
      "nodes": [
        0
      ]
    }
  ]
}
