{
  "accessors": [
    {
      "bufferView": 2,
      "componentType": 5126,
      "count": 1831,
      "max": [
        2.3859283924102783,
        0.7575287818908691,
        1.0000001192092896
      ],
      "min": [
        -2.3942818641662598,
        -0.5424980521202087,
        -1.0
      ],
      "type": "VEC3"
    },
    {
      "bufferView": 2,
      "byteOffset": 21972,
      "componentType": 5126,
      "count": 1831,
      "max": [
        0.9931507706642151,
        1.0,
        1.0
      ],
      "min": [
        -0.9902939796447754,
        -1.0,
        -1.0
      ],
      "type": "VEC3"
    },
    {
      "bufferView": 1,
      "componentType": 5126,
      "count": 1831,
      "max": [
        0.8083109855651855,
        0.5413051843643188
      ],
      "min": [
        0.6016449928283691,
        0.5035082697868347
      ],
      "type": "VEC2"
    },
    {
      "bufferView": 0,
      "componentType": 5125,
      "count": 3741,
      "type": "SCALAR"
    },
    {
      "bufferView": 2,
      "byteOffset": 43944,
      "componentType": 5126,
      "count": 434,
      "max": [
        2.217298746109009,
        0.04488855600357056,
        1.0000001192092896
      ],
      "min": [
        -2.2422690391540527,
        -0.7003347873687744,
        -1.0
      ],
      "type": "VEC3"
    },
    {
      "bufferView": 2,
      "byteOffset": 49152,
      "componentType": 5126,
      "count": 434,
      "max": [
        1.0,
        0.9999998807907104,
        1.0
      ],
      "min": [
        -0.999998152256012,
        -0.9999985098838806,
        -1.0
      ],
      "type": "VEC3"
    },
    {
      "bufferView": 1,
      "byteOffset": 14648,
      "componentType": 5126,
      "count": 434,
      "max": [
        0.9417202472686768,
        0.8631835579872131
      ],
      "min": [
        0.16246488690376282,
        -1.0415825843811035
      ],
      "type": "VEC2"
    },
    {
      "bufferView": 0,
      "byteOffset": 14964,
      "componentType": 5125,
      "count": 828,
      "type": "SCALAR"
    },
    {
      "bufferView": 2,
      "byteOffset": 54360,
      "componentType": 5126,
      "count": 576,
      "max": [
        0.8878302574157715,
        0.24686861038208008,
        0.2733202278614044
      ],
      "min": [
        -0.8979701995849609,
        -0.30541813373565674,
        -0.2763950526714325
      ],
      "type": "VEC3"
    },
    {
      "bufferView": 2,
      "byteOffset": 61272,
      "componentType": 5126,
      "count": 576,
      "max": [
        1.0,
        1.0,
        1.0
      ],
      "min": [
        -1.0,
        -1.0,
        -1.0
      ],
      "type": "VEC3"
    },
    {
      "bufferView": 1,
      "byteOffset": 18120,
      "componentType": 5126,
      "count": 576,
      "max": [
        0.5356255769729614,
        0.23776713013648987
      ],
      "min": [
        0.5070056915283203,
        0.14522552490234375
      ],
      "type": "VEC2"
    },
    {
      "bufferView": 0,
      "byteOffset": 18276,
      "componentType": 5125,
      "count": 1104,
      "type": "SCALAR"
    },
    {
      "bufferView": 2,
      "byteOffset": 68184,
      "componentType": 5126,
      "count": 72,
      "max": [
        2.4617981910705566,
        0.8491382598876953,
        1.0
      ],
      "min": [
        -2.4534173011779785,
        -0.01985986903309822,
        -1.0000001192092896
      ],
      "type": "VEC3"
    },
    {
      "bufferView": 2,
      "byteOffset": 69048,
      "componentType": 5126,
      "count": 72,
      "max": [
        0.9852668642997742,
        0.9939643144607544,
        1.0
      ],
      "min": [
        -0.9854741096496582,
        -0.9988265037536621,
        -1.0
      ],
      "type": "VEC3"
    },
    {
      "bufferView": 1,
      "byteOffset": 22728,
      "componentType": 5126,
      "count": 72,
      "max": [
        0.9981415271759033,
        1.2557365894317627
      ],
      "min": [
        0.00824850331991911,
        -0.2145872712135315
      ],
      "type": "VEC2"
    },
    {
      "bufferView": 0,
      "byteOffset": 22692,
      "componentType": 5125,
      "count": 108,
      "type": "SCALAR"
    },
    {
      "bufferView": 2,
      "byteOffset": 69912,
      "componentType": 5126,
      "count": 988,
      "max": [
        0.9836513996124268,
        0.42686688899993896,
        0.6034632921218872
      ],
      "min": [
        -0.880943775177002,
        -0.6071120500564575,
        -0.5305047035217285
      ],
      "type": "VEC3"
    },
    {
      "bufferView": 2,
      "byteOffset": 81768,
      "componentType": 5126,
      "count": 988,
      "max": [
        1.0,
        1.0,
        1.0
      ],
      "min": [
        -1.0,
        -1.0,
        -1.0
      ],
      "type": "VEC3"
    },
    {
      "bufferView": 1,
      "byteOffset": 23304,
      "componentType": 5126,
      "count": 988,
      "max": [
        0.5449532270431519,
        0.2427326738834381
      ],
      "min": [
        0.49137163162231445,
        0.14610785245895386
      ],
      "type": "VEC2"
    },
    {
      "bufferView": 0,
      "byteOffset": 23124,
      "componentType": 5125,
      "count": 1848,
      "type": "SCALAR"
    }
  ],
  "asset": {
    "extras": {
      "author": "miharbico (https://sketchfab.com/miharbico)",
      "license": "CC-BY-4.0 (http://creativecommons.org/licenses/by/4.0/)",
      "source": "https://sketchfab.com/3d-models/tforce-delta-ram-aee3bb8d00ff409986aca6009b91d5e8",
      "title": "Tforce Delta Ram"
    },
    "generator": "Sketchfab-12.66.0",
    "version": "2.0"
  },
  "bufferViews": [
    {
      "buffer": 0,
      "byteLength": 30516,
      "name": "floatBufferViews",
      "target": 34963
    },
    {
      "buffer": 0,
      "byteLength": 31208,
      "byteOffset": 30516,
      "byteStride": 8,
      "name": "floatBufferViews",
      "target": 34962
    },
    {
      "buffer": 0,
      "byteLength": 93624,
      "byteOffset": 61724,
      "byteStride": 12,
      "name": "floatBufferViews",
      "target": 34962
    }
  ],
  "buffers": [
    {
      "byteLength": 155348,
      "uri": "scene.bin"
    }
  ],
  "images": [
    {
      "uri": "textures/Material_baseColor.jpeg"
    },
    {
      "uri": "textures/Material.003_baseColor.jpeg"
    },
    {
      "uri": "textures/Material.001_baseColor.jpeg"
    }
  ],
  "materials": [
    {
      "doubleSided": true,
      "name": "Material",
      "pbrMetallicRoughness": {
        "baseColorTexture": {
          "index": 0
        },
        "metallicFactor": 0.0,
        "roughnessFactor": 0.4
      }
    },
    {
      "doubleSided": true,
      "name": "Material.003",
      "pbrMetallicRoughness": {
        "baseColorTexture": {
          "index": 1
        },
        "metallicFactor": 0.0,
        "roughnessFactor": 0.4
      }
    },
    {
      "doubleSided": true,
      "name": "Material.002",
      "pbrMetallicRoughness": {
        "baseColorTexture": {
          "index": 0
        },
        "metallicFactor": 0.0,
        "roughnessFactor": 0.5
      }
    },
    {
      "doubleSided": true,
      "name": "Material.001",
      "pbrMetallicRoughness": {
        "baseColorTexture": {
          "index": 2
        },
        "metallicFactor": 0.0,
        "roughnessFactor": 0.4
      }
    }
  ],
  "meshes": [
    {
      "name": "Object_0",
      "primitives": [
        {
          "attributes": {
            "NORMAL": 1,
            "POSITION": 0,
            "TEXCOORD_0": 2
          },
          "indices": 3,
          "material": 0,
          "mode": 4
        }
      ]
    },
    {
      "name": "Object_1",
      "primitives": [
        {
          "attributes": {
            "NORMAL": 5,
            "POSITION": 4,
            "TEXCOORD_0": 6
          },
          "indices": 7,
          "material": 1,
          "mode": 4
        }
      ]
    },
    {
      "name": "Object_2",
      "primitives": [
        {
          "attributes": {
            "NORMAL": 9,
            "POSITION": 8,
            "TEXCOORD_0": 10
          },
          "indices": 11,
          "material": 2,
          "mode": 4
        }
      ]
    },
    {
      "name": "Object_3",
      "primitives": [
        {
          "attributes": {
            "NORMAL": 13,
            "POSITION": 12,
            "TEXCOORD_0": 14
          },
          "indices": 15,
          "material": 3,
          "mode": 4
        }
      ]
    },
    {
      "name": "Object_4",
      "primitives": [
        {
          "attributes": {
            "NORMAL": 17,
            "POSITION": 16,
            "TEXCOORD_0": 18
          },
          "indices": 19,
          "material": 2,
          "mode": 4
        }
      ]
    }
  ],
  "nodes": [
    {
      "children": [
        1
      ],
      "matrix": [
        1.0,
        0.0,
        0.0,
        0.0,
        0.0,
        2.220446049250313e-16,
        -1.0,
        0.0,
        0.0,
        1.0,
        2.220446049250313e-16,
        0.0,
        0.0,
        0.0,
        0.0,
        1.0
      ],
      "name": "Sketchfab_model"
    },
    {
      "children": [
        2
      ],
      "name": "root"
    },
    {
      "children": [
        3,
        5,
        7,
        9,
        11
      ],
      "matrix": [
        1.0,
        0.0,
        0.0,
        0.0,
        0.0,
        2.220446049250313e-16,
        1.0,
        0.0,
        0.0,
        -1.0,
        2.220446049250313e-16,
        0.0,
        0.0,
        0.0,
        0.0,
        1.0
      ],
      "name": "GLTF_SceneRootNode"
    },
    {
      "children": [
        4
      ],
      "matrix": [
        1.0,
        0.0,
        0.0,
        0.0,
        0.0,
        1.0,
        0.0,
        0.0,
        0.0,
        0.0,
        0.11370950937271118,
        0.0,
        0.0,
        0.0,
        0.0,
        1.0
      ],
      "name": "CASE_0"
    },
    {
      "mesh": 0,
      "name": "Object_4"
    },
    {
      "children": [
        6
      ],
      "matrix": [
        1.0,
        0.0,
        0.0,
        0.0,
        0.0,
        1.0,
        0.0,
        0.0,
        0.0,
        0.0,
        0.020761266350746155,
        0.0,
        0.0,
        0.0,
        0.0,
        1.0
      ],
      "name": "CHIP_1"
    },
    {
      "mesh": 1,
      "name": "Object_6"
    },
    {
      "children": [
        8
      ],
      "matrix": [
        0.3164357841014862,
        0.0,
        0.0,
        0.0,
        0.0,
        0.1703404188156128,
        0.0,
        0.0,
        0.0,
        0.0,
        0.42430800199508667,
        0.0,
        -1.198878526687622,
        0.5854390859603882,
        0.0008655944839119911,
        1.0
      ],
      "name": "DELTA_2"
    },
    {
      "mesh": 2,
      "name": "Object_8"
    },
    {
      "children": [
        10
      ],
      "matrix": [
        1.0,
        0.0,
        0.0,
        0.0,
        0.0,
        1.0,
        0.0,
        0.0,
        0.0,
        0.0,
        0.0817345529794693,
        0.0,
        0.0,
        0.0,
        0.0,
        1.0
      ],
      "name": "RGB_3"
    },
    {
      "mesh": 3,
      "name": "Object_10"
    },
    {
      "children": [
        12
      ],
      "matrix": [
        0.4843212068080902,
        0.0,
        0.0,
        0.0,
        0.0,
        0.4843212068080902,
        0.0,
        0.0,
        0.0,
        0.0,
        0.20490553975105286,
        0.0,
        -0.07058105617761612,
        0.06665989011526108,
        -0.008867725729942322,
        1.0
      ],
      "name": "T FORCE_4"
    },
    {
      "mesh": 4,
      "name": "Object_12"
    }
  ],
  "samplers": [
    {
      "magFilter": 9729,
      "minFilter": 9987,
      "wrapS": 10497,
      "wrapT": 10497
    }
  ],
  "scene": 0,
  "scenes": [
    {
      "name": "Sketchfab_Scene",
      "nodes": [
        0
      ]
    }
  ],
  "textures": [
    {
      "sampler": 0,
      "source": 0
    },
    {
      "sampler": 0,
      "source": 1
    },
    {
      "sampler": 0,
      "source": 2
    }
  ]
}
