{
  "accessors": [
    {
      "bufferView": 2,
      "componentType": 5126,
      "count": 1842,
      "max": [
        4.061257839202881,
        0.9336368441581726,
        1.0700005292892456
      ],
      "min": [
        -3.3738746643066406,
        -0.9336369037628174,
        -4.468967773618715e-08
      ],
      "type": "VEC3"
    },
    {
      "bufferView": 2,
      "byteOffset": 22104,
      "componentType": 5126,
      "count": 1842,
      "max": [
        1.0,
        1.0,
        1.0
      ],
      "min": [
        -1.0,
        -1.0,
        -1.0
      ],
      "type": "VEC3"
    },
    {
      "bufferView": 3,
      "componentType": 5126,
      "count": 1842,
      "max": [
        1.0,
        1.0,
        1.0,
        1.0
      ],
      "min": [
        -1.0,
        -1.0,
        -1.0,
        1.0
      ],
      "type": "VEC4"
    },
    {
      "bufferView": 3,
      "byteOffset": 29472,
      "componentType": 5126,
      "count": 1842,
      "max": [
        1.0,
        1.0,
        1.0,
        1.0
      ],
      "min": [
        0.9960784316062927,
        0.9960784316062927,
        0.9960784316062927,
        1.0
      ],
      "type": "VEC4"
    },
    {
      "bufferView": 1,
      "componentType": 5126,
      "count": 1842,
      "max": [
        0.998046875,
        0.996350884437561
      ],
      "min": [
        0.001953125,
        0.001953125
      ],
      "type": "VEC2"
    },
    {
      "bufferView": 0,
      "componentType": 5125,
      "count": 6576,
      "type": "SCALAR"
    }
  ],
  "asset": {
    "extras": {
      "author": "Dmytro Rohovyi (https://sketchfab.com/dmitriyslavyanskiy)",
      "license": "CC-BY-NC-4.0 (http://creativecommons.org/licenses/by-nc/4.0/)",
      "source": "https://sketchfab.com/3d-models/goodram-usb-flash-drive-b1098389cc3b460bb1f1ce558d4b0764",
      "title": "Goodram USB Flash Drive"
    },
    "generator": "Sketchfab-12.66.0",
    "version": "2.0"
  },
  "bufferViews": [
    {
      "buffer": 0,
      "byteLength": 26304,
      "name": "floatBufferViews",
      "target": 34963
    },
    {
      "buffer": 0,
      "byteLength": 14736,
      "byteOffset": 26304,
      "byteStride": 8,
      "name": "floatBufferViews",
      "target": 34962
    },
    {
      "buffer": 0,
      "byteLength": 44208,
      "byteOffset": 41040,
      "byteStride": 12,
      "name": "floatBufferViews",
      "target": 34962
    },
    {
      "buffer": 0,
      "byteLength": 58944,
      "byteOffset": 85248,
      "byteStride": 16,
      "name": "floatBufferViews",
      "target": 34962
    }
  ],
  "buffers": [
    {
      "byteLength": 144192,
      "uri": "scene.bin"
    }
  ],
  "images": [
    {
      "uri": "textures/Flash_baseColor.png"
    },
    {
      "uri": "textures/Flash_metallicRoughness.png"
    },
    {
      "uri": "textures/Flash_normal.png"
    }
  ],
  "materials": [
    {
      "doubleSided": true,
      "name": "Flash",
      "normalTexture": {
        "index": 2
      },
      "occlusionTexture": {
        "index": 1
      },
      "pbrMetallicRoughness": {
        "baseColorTexture": {
          "index": 0
        },
        "metallicRoughnessTexture": {
          "index": 1
        }
      }
    }
  ],
  "meshes": [
    {
      "name": "flash_drive_low_tri_Flash_0",
      "primitives": [
        {
          "attributes": {
            "COLOR_0": 3,
            "NORMAL": 1,
            "POSITION": 0,
            "TANGENT": 2,
            "TEXCOORD_0": 4
          },
          "indices": 5,
          "material": 0,
          "mode": 4
        }
      ]
    }
  ],
  "nodes": [
    {
      "children": [
        1
      ],
      "matrix": [
        1.0,
        0.0,
        0.0,
        0.0,
        0.0,
        2.220446049250313e-16,
        -1.0,
        0.0,
        0.0,
        1.0,
        2.220446049250313e-16,
        0.0,
        0.0,
        0.0,
        0.0,
        1.0
      ],
      "name": "Sketchfab_model"
    },
    {
      "children": [
        2
      ],
      "matrix": [
        1.0,
        0.0,
        0.0,
        0.0,
        0.0,
        0.0,
        1.0,
        0.0,
        0.0,
        -1.0,
        0.0,
        0.0,
        0.0,
        0.0,
        0.0,
        1.0
      ],
      "name": "42df8db9951b4bcd911ac94439625986.fbx"
    },
    {
      "children": [
        3
      ],
      "name": "RootNode"
    },
    {
      "children": [
        4
      ],
      "matrix": [
        1.0,
        0.0,
        0.0,
        0.0,
        0.0,
        -1.6292067939183141e-07,
        -0.9999999999999868,
        0.0,
        0.0,
        0.9999999999999868,
        -1.6292067939183141e-07,
        0.0,
        0.0,
        0.0,
        0.0,
        1.0
      ],
      "name": "flash_drive_low_tri"
    },
    {
      "mesh": 0,
      "name": "flash_drive_low_tri_Flash_0"
    }
  ],
  "samplers": [
    {
      "magFilter": 9729,
      "minFilter": 9987,
      "wrapS": 10497,
      "wrapT": 10497
    }
  ],
  "scene": 0,
  "scenes": [
    {
      "name": "Sketchfab_Scene",
      "nodes": [
        0
      ]
    }
  ],
  "textures": [
    {
      "sampler": 0,
      "source": 0
    },
    {
      "sampler": 0,
      "source": 1
    },
    {
      "sampler": 0,
      "source": 2
    }
  ]
}
