{
  "accessors": [
    {
      "bufferView": 2,
      "componentType": 5126,
      "count": 643,
      "max": [
        81.34083557128906,
        42.16127395629883,
        42.96137237548828
      ],
      "min": [
        -81.53924560546875,
        -42.16127395629883,
        0.09560585021972656
      ],
      "type": "VEC3"
    },
    {
      "bufferView": 2,
      "byteOffset": 7716,
      "componentType": 5126,
      "count": 643,
      "max": [
        1.0,
        0.9999954104423523,
        1.0
      ],
      "min": [
        -0.9999974370002747,
        -0.9999954104423523,
        -1.0
      ],
      "type": "VEC3"
    },
    {
      "bufferView": 3,
      "componentType": 5126,
      "count": 643,
      "max": [
        0.9869108200073242,
        0.9995294213294983,
        0.9992809891700745,
        1.0
      ],
      "min": [
        -0.9822174906730652,
        -0.9996944069862366,
        -0.9989627599716187,
        1.0
      ],
      "type": "VEC4"
    },
    {
      "bufferView": 1,
      "componentType": 5126,
      "count": 643,
      "max": [
        0.912968099117279,
        0.9945317506790161
      ],
      "min": [
        0.0061272792518138885,
        0.257202684879303
      ],
      "type": "VEC2"
    },
    {
      "bufferView": 0,
      "componentType": 5125,
      "count": 3162,
      "type": "SCALAR"
    },
    {
      "bufferView": 2,
      "byteOffset": 15432,
      "componentType": 5126,
      "count": 130,
      "max": [
        19.249187469482422,
        19.27310562133789,
        19.249187469482422
      ],
      "min": [
        -19.24918556213379,
        -19.27310562133789,
        -19.249187469482422
      ],
      "type": "VEC3"
    },
    {
      "bufferView": 2,
      "byteOffset": 16992,
      "componentType": 5126,
      "count": 130,
      "max": [
        0.9982635974884033,
        1.0,
        0.9982635974884033
      ],
      "min": [
        -0.9982635974884033,
        -1.0,
        -0.9982635974884033
      ],
      "type": "VEC3"
    },
    {
      "bufferView": 3,
      "byteOffset": 10288,
      "componentType": 5126,
      "count": 130,
      "max": [
        0.709439218044281,
        0.9844098687171936,
        0.9621971249580383,
        1.0
      ],
      "min": [
        -0.6912854909896851,
        -0.9999076128005981,
        -0.834496796131134,
        1.0
      ],
      "type": "VEC4"
    },
    {
      "bufferView": 1,
      "byteOffset": 5144,
      "componentType": 5126,
      "count": 130,
      "max": [
        0.9903725385665894,
        0.6320630311965942
      ],
      "min": [
        0.6699848771095276,
        0.19961020350456238
      ],
      "type": "VEC2"
    },
    {
      "bufferView": 0,
      "byteOffset": 12648,
      "componentType": 5125,
      "count": 576,
      "type": "SCALAR"
    },
    {
      "bufferView": 2,
      "byteOffset": 18552,
      "componentType": 5126,
      "count": 137,
      "max": [
        40.89422607421875,
        37.704830169677734,
        17.521915435791016
      ],
      "min": [
        -22.686107635498047,
        19.157567977905273,
        -4.7421674728393555
      ],
      "type": "VEC3"
    },
    {
      "bufferView": 2,
      "byteOffset": 20196,
      "componentType": 5126,
      "count": 137,
      "max": [
        0.9951961636543274,
        0.9963309168815613,
        0.9015828967094421
      ],
      "min": [
        -0.9990951418876648,
        -0.7354206442832947,
        -0.7079554200172424
      ],
      "type": "VEC3"
    },
    {
      "bufferView": 3,
      "byteOffset": 12368,
      "componentType": 5126,
      "count": 137,
      "max": [
        0.9995214343070984,
        0.9140758514404297,
        0.8756548166275024,
        -1.0
      ],
      "min": [
        -0.002371456939727068,
        -0.8619917631149292,
        -0.905362069606781,
        -1.0
      ],
      "type": "VEC4"
    },
    {
      "bufferView": 1,
      "byteOffset": 6184,
      "componentType": 5126,
      "count": 137,
      "max": [
        0.6713094115257263,
        0.35844019055366516
      ],
      "min": [
        0.36552000045776367,
        0.20082613825798035
      ],
      "type": "VEC2"
    },
    {
      "bufferView": 0,
      "byteOffset": 14952,
      "componentType": 5125,
      "count": 690,
      "type": "SCALAR"
    },
    {
      "bufferView": 2,
      "byteOffset": 21840,
      "componentType": 5126,
      "count": 137,
      "max": [
        40.89422607421875,
        -19.157567977905273,
        17.521915435791016
      ],
      "min": [
        -22.686107635498047,
        -37.704830169677734,
        -4.7421674728393555
      ],
      "type": "VEC3"
    },
    {
      "bufferView": 2,
      "byteOffset": 23484,
      "componentType": 5126,
      "count": 137,
      "max": [
        0.9951961636543274,
        0.7354206442832947,
        0.9015828967094421
      ],
      "min": [
        -0.9990951418876648,
        -0.9963309168815613,
        -0.7079554200172424
      ],
      "type": "VEC3"
    },
    {
      "bufferView": 3,
      "byteOffset": 14560,
      "componentType": 5126,
      "count": 137,
      "max": [
        0.9995214343070984,
        0.861991822719574,
        0.8756548166275024,
        1.0
      ],
      "min": [
        -0.0023714611306786537,
        -0.9140758514404297,
        -0.9061774015426636,
        1.0
      ],
      "type": "VEC4"
    },
    {
      "bufferView": 1,
      "byteOffset": 7280,
      "componentType": 5126,
      "count": 137,
      "max": [
        0.6713094115257263,
        0.33208829164505005
      ],
      "min": [
        0.22680015861988068,
        0.19901111721992493
      ],
      "type": "VEC2"
    },
    {
      "bufferView": 0,
      "byteOffset": 17712,
      "componentType": 5125,
      "count": 690,
      "type": "SCALAR"
    },
    {
      "bufferView": 2,
      "byteOffset": 25128,
      "componentType": 5126,
      "count": 952,
      "max": [
        233.96261596679688,
        133.51669311523438,
        2.0587854385375977
      ],
      "min": [
        -138.94688415527344,
        -212.57534790039063,
        -2.0587854385375977
      ],
      "type": "VEC3"
    },
    {
      "bufferView": 2,
      "byteOffset": 36552,
      "componentType": 5126,
      "count": 952,
      "max": [
        0.8688781261444092,
        0.8695835471153259,
        0.9999999403953552
      ],
      "min": [
        -0.8698572516441345,
        -0.869247317314148,
        -0.9999999403953552
      ],
      "type": "VEC3"
    },
    {
      "bufferView": 3,
      "byteOffset": 16752,
      "componentType": 5126,
      "count": 952,
      "max": [
        0.9999827146530151,
        0.9999717473983765,
        0.0218109842389822,
        1.0
      ],
      "min": [
        -0.9999991059303284,
        -0.8772485852241516,
        -0.021811410784721375,
        1.0
      ],
      "type": "VEC4"
    },
    {
      "bufferView": 1,
      "byteOffset": 8376,
      "componentType": 5126,
      "count": 952,
      "max": [
        0.9997947812080383,
        0.1874932050704956
      ],
      "min": [
        0.003794764168560505,
        0.0019998580683022738
      ],
      "type": "VEC2"
    },
    {
      "bufferView": 0,
      "byteOffset": 20472,
      "componentType": 5125,
      "count": 4608,
      "type": "SCALAR"
    },
    {
      "bufferView": 2,
      "byteOffset": 47976,
      "componentType": 5126,
      "count": 280,
      "max": [
        40.90638732910156,
        35.86682891845703,
        3.782555103302002
      ],
      "min": [
        -4.330339431762695,
        -4.9387664794921875,
        -3.782555103302002
      ],
      "type": "VEC3"
    },
    {
      "bufferView": 2,
      "byteOffset": 51336,
      "componentType": 5126,
      "count": 280,
      "max": [
        0.7663298845291138,
        0.7708417773246765,
        1.0
      ],
      "min": [
        -0.9720302820205688,
        -0.9303168058395386,
        -1.0
      ],
      "type": "VEC3"
    },
    {
      "bufferView": 3,
      "byteOffset": 31984,
      "componentType": 5126,
      "count": 280,
      "max": [
        0.7933528423309326,
        0.7693893909454346,
        0.9997588992118835,
        1.0
      ],
      "min": [
        -0.9976246953010559,
        -0.9902434349060059,
        -0.9993268847465515,
        1.0
      ],
      "type": "VEC4"
    },
    {
      "bufferView": 1,
      "byteOffset": 15992,
      "componentType": 5126,
      "count": 280,
      "max": [
        0.7970414757728577,
        0.6586616039276123
      ],
      "min": [
        0.7030392289161682,
        0.5561012625694275
      ],
      "type": "VEC2"
    },
    {
      "bufferView": 0,
      "byteOffset": 38904,
      "componentType": 5125,
      "count": 810,
      "type": "SCALAR"
    },
    {
      "bufferView": 2,
      "byteOffset": 54696,
      "componentType": 5126,
      "count": 32,
      "max": [
        1.5628987550735474,
        -21.299999237060547,
        16.69051170349121
      ],
      "min": [
        -8.112815856933594,
        -23.120309829711914,
        15.08780288696289
      ],
      "type": "VEC3"
    },
    {
      "bufferView": 2,
      "byteOffset": 55080,
      "componentType": 5126,
      "count": 32,
      "max": [
        0.34231510758399963,
        0.18918979167938232,
        0.9857500195503235
      ],
      "min": [
        -0.6867921352386475,
        -0.9357869029045105,
        0.3518783152103424
      ],
      "type": "VEC3"
    },
    {
      "bufferView": 3,
      "byteOffset": 36464,
      "componentType": 5126,
      "count": 32,
      "max": [
        0.9993438720703125,
        0.2526799440383911,
        0.6084539890289307,
        1.0
      ],
      "min": [
        0.7230542898178101,
        -0.4530852735042572,
        -0.3181408941745758,
        1.0
      ],
      "type": "VEC4"
    },
    {
      "bufferView": 1,
      "byteOffset": 18232,
      "componentType": 5126,
      "count": 32,
      "max": [
        0.4764213562011719,
        0.37275564670562744
      ],
      "min": [
        0.43841665983200073,
        0.36486387252807617
      ],
      "type": "VEC2"
    },
    {
      "bufferView": 0,
      "byteOffset": 42144,
      "componentType": 5125,
      "count": 66,
      "type": "SCALAR"
    },
    {
      "bufferView": 2,
      "byteOffset": 55464,
      "componentType": 5126,
      "count": 32,
      "max": [
        0.47294044494628906,
        23.25763511657715,
        17.043901443481445
      ],
      "min": [
        -9.205476760864258,
        21.71462059020996,
        15.244335174560547
      ],
      "type": "VEC3"
    },
    {
      "bufferView": 2,
      "byteOffset": 55848,
      "componentType": 5126,
      "count": 32,
      "max": [
        0.5927392840385437,
        0.9879525899887085,
        0.9948684573173523
      ],
      "min": [
        -0.5397878289222717,
        -0.1277083456516266,
        0.1311371773481369
      ],
      "type": "VEC3"
    },
    {
      "bufferView": 3,
      "byteOffset": 36976,
      "componentType": 5126,
      "count": 32,
      "max": [
        -0.8035796284675598,
        0.38358211517333984,
        0.5279189348220825,
        -1.0
      ],
      "min": [
        -0.9975647926330566,
        -0.3360658884048462,
        -0.4981154203414917,
        -1.0
      ],
      "type": "VEC4"
    },
    {
      "bufferView": 1,
      "byteOffset": 18488,
      "componentType": 5126,
      "count": 32,
      "max": [
        0.3469769060611725,
        0.26113325357437134
      ],
      "min": [
        0.30897220969200134,
        0.25324147939682007
      ],
      "type": "VEC2"
    },
    {
      "bufferView": 0,
      "byteOffset": 42408,
      "componentType": 5125,
      "count": 66,
      "type": "SCALAR"
    }
  ],
  "asset": {
    "extras": {
      "author": "dima051983 (https://sketchfab.com/dima051983)",
      "license": "CC-BY-4.0 (http://creativecommons.org/licenses/by/4.0/)",
      "source": "https://sketchfab.com/3d-models/trackball-82e1e1e2069e409aa162333b339014a7",
      "title": "Трекбол. Trackball"
    },
    "generator": "Sketchfab-15.27.0",
    "version": "2.0"
  },
  "bufferViews": [
    {
      "buffer": 0,
      "byteLength": 42672,
      "name": "floatBufferViews",
      "target": 34963
    },
    {
      "buffer": 0,
      "byteLength": 18744,
      "byteOffset": 42672,
      "byteStride": 8,
      "name": "floatBufferViews",
      "target": 34962
    },
    {
      "buffer": 0,
      "byteLength": 56232,
      "byteOffset": 61416,
      "byteStride": 12,
      "name": "floatBufferViews",
      "target": 34962
    },
    {
      "buffer": 0,
      "byteLength": 37488,
      "byteOffset": 117648,
      "byteStride": 16,
      "name": "floatBufferViews",
      "target": 34962
    }
  ],
  "buffers": [
    {
      "byteLength": 155136,
      "uri": "scene.bin"
    }
  ],
  "images": [
    {
      "uri": "textures/trackball_Logitech_TrackmanMarble_baseColor.jpeg"
    },
    {
      "uri": "textures/trackball_Logitech_TrackmanMarble_metallicRoughness.png"
    },
    {
      "uri": "textures/trackball_Logitech_TrackmanMarble_normal.png"
    }
  ],
  "materials": [
    {
      "doubleSided": true,
      "name": "trackball_Logitech_TrackmanMarble",
      "normalTexture": {
        "index": 2
      },
      "occlusionTexture": {
        "index": 1
      },
      "pbrMetallicRoughness": {
        "baseColorTexture": {
          "index": 0
        },
        "metallicRoughnessTexture": {
          "index": 1
        }
      }
    }
  ],
  "meshes": [
    {
      "name": "trackball_Logitech_TrackmanMarble_Korpus_trackball_Logitech_TrackmanMarble_0",
      "primitives": [
        {
          "attributes": {
            "NORMAL": 1,
            "POSITION": 0,
            "TANGENT": 2,
            "TEXCOORD_0": 3
          },
          "indices": 4,
          "material": 0,
          "mode": 4
        }
      ]
    },
    {
      "name": "trackball_ball_trackball_Logitech_TrackmanMarble_0",
      "primitives": [
        {
          "attributes": {
            "NORMAL": 6,
            "POSITION": 5,
            "TANGENT": 7,
            "TEXCOORD_0": 8
          },
          "indices": 9,
          "material": 0,
          "mode": 4
        }
      ]
    },
    {
      "name": "trackball_Logitech_TrackmanMarble_Knopka1_trackball_Logitech_TrackmanMarble_0",
      "primitives": [
        {
          "attributes": {
            "NORMAL": 11,
            "POSITION": 10,
            "TANGENT": 12,
            "TEXCOORD_0": 13
          },
          "indices": 14,
          "material": 0,
          "mode": 4
        }
      ]
    },
    {
      "name": "trackball_Logitech_TrackmanMarble_Knopka2_trackball_Logitech_TrackmanMarble_0",
      "primitives": [
        {
          "attributes": {
            "NORMAL": 16,
            "POSITION": 15,
            "TANGENT": 17,
            "TEXCOORD_0": 18
          },
          "indices": 19,
          "material": 0,
          "mode": 4
        }
      ]
    },
    {
      "name": "trackball_kabel_trackball_Logitech_TrackmanMarble_0",
      "primitives": [
        {
          "attributes": {
            "NORMAL": 21,
            "POSITION": 20,
            "TANGENT": 22,
            "TEXCOORD_0": 23
          },
          "indices": 24,
          "material": 0,
          "mode": 4
        }
      ]
    },
    {
      "name": "Shape009_trackball_Logitech_TrackmanMarble_0",
      "primitives": [
        {
          "attributes": {
            "NORMAL": 26,
            "POSITION": 25,
            "TANGENT": 27,
            "TEXCOORD_0": 28
          },
          "indices": 29,
          "material": 0,
          "mode": 4
        }
      ]
    },
    {
      "name": "Object005_trackball_Logitech_TrackmanMarble_0",
      "primitives": [
        {
          "attributes": {
            "NORMAL": 31,
            "POSITION": 30,
            "TANGENT": 32,
            "TEXCOORD_0": 33
          },
          "indices": 34,
          "material": 0,
          "mode": 4
        }
      ]
    },
    {
      "name": "Object006_trackball_Logitech_TrackmanMarble_0",
      "primitives": [
        {
          "attributes": {
            "NORMAL": 36,
            "POSITION": 35,
            "TANGENT": 37,
            "TEXCOORD_0": 38
          },
          "indices": 39,
          "material": 0,
          "mode": 4
        }
      ]
    }
  ],
  "nodes": [
    {
      "children": [
        1
      ],
      "matrix": [
        1.0,
        0.0,
        0.0,
        0.0,
        0.0,
        2.220446049250313e-16,
        -1.0,
        0.0,
        0.0,
        1.0,
        2.220446049250313e-16,
        0.0,
        0.0,
        0.0,
        0.0,
        1.0
      ],
      "name": "Sketchfab_model"
    },
    {
      "children": [
        2
      ],
      "matrix": [
        1.0,
        0.0,
        0.0,
        0.0,
        0.0,
        0.0,
        1.0,
        0.0,
        0.0,
        -1.0,
        0.0,
        0.0,
        0.0,
        0.0,
        0.0,
        1.0
      ],
      "name": "trackball_Logitech_TrackmanMarble_sketchfab.FBX"
    },
    {
      "children": [
        3,
        19,
        22
      ],
      "name": "RootNode"
    },
    {
      "children": [
        4,
        6,
        8,
        11,
        14,
        17
      ],
      "matrix": [
        1.0,
        0.0,
        0.0,
        0.0,
        0.0,
        2.220446049250313e-16,
        -1.0,
        0.0,
        0.0,
        1.0,
        2.220446049250313e-16,
        0.0,
        -0.14189910888671875,
        21.49492073059082,
        0.23871231079101563,
        1.0
      ],
      "name": "trackball_Logitech_TrackmanMarble_Korpus"
    },
    {
      "children": [
        5
      ],
      "matrix": [
        1.0,
        0.0,
        -0.0,
        0.0,
        0.0,
        1.0,
        0.0,
        0.0,
        0.0,
        0.0,
        1.0,
        0.0,
        0.09920120239257813,
        8.940696716308594e-07,
        -21.528488159179688,
        1.0
      ],
      "name": "Object_4"
    },
    {
      "mesh": 0,
      "name": "trackball_Logitech_TrackmanMarble_Korpus_trackball_Logitech_TrackmanMarble_0"
    },
    {
      "children": [
        7
      ],
      "matrix": [
        1.0,
        0.0,
        0.0,
        0.0,
        0.0,
        1.0,
        0.0,
        0.0,
        0.0,
        0.0,
        1.0,
        0.0,
        42.984405517578125,
        0.03419303894042969,
        6.990028381347656,
        1.0
      ],
      "name": "trackball_ball"
    },
    {
      "mesh": 1,
      "name": "trackball_ball_trackball_Logitech_TrackmanMarble_0"
    },
    {
      "children": [
        9
      ],
      "matrix": [
        1.0,
        0.0,
        0.0,
        0.0,
        0.0,
        0.7545158373926775,
        0.6562818381790149,
        0.0,
        0.0,
        -0.6562818381790149,
        0.7545158373926775,
        0.0,
        9.20326042175293,
        28.431198120117188,
        5.561805725097656,
        1.0
      ],
      "name": "trackball_Logitech_TrackmanMarble_Knopka1"
    },
    {
      "children": [
        10
      ],
      "matrix": [
        0.9999999999999994,
        -1.073045391092086e-08,
        -2.8686988579014832e-08,
        0.0,
        -1.0730452609117308e-08,
        0.7545158275356798,
        -0.6562818495114336,
        0.0,
        2.868698906595831e-08,
        0.6562818495114336,
        0.7545158275356794,
        0.0,
        -9.104059219360352,
        -25.645343780517578,
        13.83761978149414,
        1.0
      ],
      "name": "Object_9"
    },
    {
      "mesh": 2,
      "name": "trackball_Logitech_TrackmanMarble_Knopka1_trackball_Logitech_TrackmanMarble_0"
    },
    {
      "children": [
        12
      ],
      "matrix": [
        1.0,
        0.0,
        0.0,
        0.0,
        0.0,
        -0.7495233260352652,
        0.661977932962296,
        0.0,
        0.0,
        -0.661977932962296,
        -0.7495233260352652,
        0.0,
        9.20326042175293,
        -28.431198120117188,
        5.561805725097656,
        1.0
      ],
      "name": "trackball_Logitech_TrackmanMarble_Knopka2"
    },
    {
      "children": [
        13
      ],
      "matrix": [
        0.9999999999999967,
        -7.647409815156041e-08,
        -2.8935983077619267e-08,
        0.0,
        -7.647410216531865e-08,
        -0.7495233145338968,
        -0.6619779459846948,
        0.0,
        2.8935972469767983e-08,
        0.661977945984695,
        -0.7495233145339,
        0.0,
        -9.104061126708984,
        -25.539798736572266,
        -14.031469345092773,
        1.0
      ],
      "name": "Object_12"
    },
    {
      "mesh": 3,
      "name": "trackball_Logitech_TrackmanMarble_Knopka2_trackball_Logitech_TrackmanMarble_0"
    },
    {
      "children": [
        15
      ],
      "matrix": [
        1.0,
        0.0,
        0.0,
        0.0,
        0.0,
        1.0,
        0.0,
        0.0,
        0.0,
        0.0,
        1.0,
        0.0,
        81.04112243652344,
        -0.0005341768264770508,
        -16.587085723876953,
        1.0
      ],
      "name": "trackball_kabel"
    },
    {
      "children": [
        16
      ],
      "matrix": [
        1.0,
        0.0,
        -0.0,
        0.0,
        0.0,
        1.0,
        0.0,
        0.0,
        0.0,
        0.0,
        1.0,
        0.0,
        138.93243408203125,
        1.7881393432617188e-07,
        0.0,
        1.0
      ],
      "name": "Object_15"
    },
    {
      "mesh": 4,
      "name": "trackball_kabel_trackball_Logitech_TrackmanMarble_0"
    },
    {
      "children": [
        18
      ],
      "matrix": [
        1.0,
        0.0,
        0.0,
        0.0,
        0.0,
        1.0,
        0.0,
        0.0,
        0.0,
        0.0,
        1.0,
        0.0,
        411.1826171875,
        -169.88253784179688,
        -16.565832138061523,
        1.0
      ],
      "name": "Shape009"
    },
    {
      "mesh": 5,
      "name": "Shape009_trackball_Logitech_TrackmanMarble_0"
    },
    {
      "children": [
        20
      ],
      "matrix": [
        1.0,
        0.0,
        0.0,
        0.0,
        0.0,
        0.6619779329622959,
        0.749523326035265,
        0.0,
        0.0,
        -0.749523326035265,
        0.6619779329622959,
        0.0,
        9.061361312866211,
        26.975910186767578,
        28.669910430908203,
        1.0
      ],
      "name": "Object005"
    },
    {
      "children": [
        21
      ],
      "matrix": [
        0.9999999999999967,
        -7.647409815156041e-08,
        -2.8935983077619267e-08,
        0.0,
        -7.647410216531865e-08,
        -0.7495233145338968,
        -0.6619779459846948,
        0.0,
        2.8935972469767983e-08,
        0.661977945984695,
        -0.7495233145339,
        0.0,
        -9.104061126708984,
        -25.539798736572266,
        -14.031469345092773,
        1.0
      ],
      "name": "Object_20"
    },
    {
      "mesh": 6,
      "name": "Object005_trackball_Logitech_TrackmanMarble_0"
    },
    {
      "children": [
        23
      ],
      "matrix": [
        1.0,
        0.0,
        0.0,
        0.0,
        0.0,
        0.6562818381790149,
        -0.7545158373926775,
        0.0,
        0.0,
        0.7545158373926775,
        0.6562818381790149,
        0.0,
        9.061361312866211,
        26.975910186767578,
        -28.192485809326172,
        1.0
      ],
      "name": "Object006"
    },
    {
      "children": [
        24
      ],
      "matrix": [
        0.9999999999999994,
        -1.073045391092086e-08,
        -2.8686988579014832e-08,
        0.0,
        -1.0730452609117308e-08,
        0.7545158275356798,
        -0.6562818495114336,
        0.0,
        2.868698906595831e-08,
        0.6562818495114336,
        0.7545158275356794,
        0.0,
        -9.104059219360352,
        -25.645343780517578,
        13.83761978149414,
        1.0
      ],
      "name": "Object_23"
    },
    {
      "mesh": 7,
      "name": "Object006_trackball_Logitech_TrackmanMarble_0"
    }
  ],
  "samplers": [
    {
      "magFilter": 9729,
      "minFilter": 9987,
      "wrapS": 10497,
      "wrapT": 10497
    }
  ],
  "scene": 0,
  "scenes": [
    {
      "name": "Sketchfab_Scene",
      "nodes": [
        0
      ]
    }
  ],
  "textures": [
    {
      "sampler": 0,
      "source": 0
    },
    {
      "sampler": 0,
      "source": 1
    },
    {
      "sampler": 0,
      "source": 2
    }
  ]
}
