{
  "accessors": [
    {
      "bufferView": 2,
      "componentType": 5126,
      "count": 65532,
      "max": [
        1.000000238418579,
        1.2467700242996216,
        1.000000238418579
      ],
      "min": [
        -1.000000238418579,
        -0.1645398885011673,
        -1.000000238418579
      ],
      "type": "VEC3"
    },
    {
      "bufferView": 2,
      "byteOffset": 786384,
      "componentType": 5126,
      "count": 65532,
      "max": [
        1.0,
        1.0,
        1.0
      ],
      "min": [
        -1.0,
        -1.0,
        -1.0
      ],
      "type": "VEC3"
    },
    {
      "bufferView": 1,
      "componentType": 5126,
      "count": 65532,
      "max": [
        0.8750001192092896,
        1.0000001192092896
      ],
      "min": [
        0.125,
        0.0
      ],
      "type": "VEC2"
    },
    {
      "bufferView": 0,
      "componentType": 5125,
      "count": 328119,
      "type": "SCALAR"
    },
    {
      "bufferView": 2,
      "byteOffset": 1572768,
      "componentType": 5126,
      "count": 10695,
      "max": [
        1.0,
        1.2457181215286255,
        1.0
      ],
      "min": [
        -1.0000001192092896,
        -0.1645398885011673,
        -1.0000001192092896
      ],
      "type": "VEC3"
    },
    {
      "bufferView": 2,
      "byteOffset": 1701108,
      "componentType": 5126,
      "count": 10695,
      "max": [
        1.0,
        1.0,
        1.0
      ],
      "min": [
        -1.0,
        -1.0,
        -1.0
      ],
      "type": "VEC3"
    },
    {
      "bufferView": 1,
      "byteOffset": 524256,
      "componentType": 5126,
      "count": 10695,
      "max": [
        0.8344299793243408,
        1.0000001192092896
      ],
      "min": [
        0.125,
        0.0833333283662796
      ],
      "type": "VEC2"
    },
    {
      "bufferView": 0,
      "byteOffset": 1312476,
      "componentType": 5125,
      "count": 40521,
      "type": "SCALAR"
    },
    {
      "bufferView": 2,
      "byteOffset": 1829448,
      "componentType": 5126,
      "count": 65532,
      "max": [
        1.000000238418579,
        1.2467700242996216,
        1.000000238418579
      ],
      "min": [
        -1.000000238418579,
        -0.1645398885011673,
        -1.000000238418579
      ],
      "type": "VEC3"
    },
    {
      "bufferView": 2,
      "byteOffset": 2615832,
      "componentType": 5126,
      "count": 65532,
      "max": [
        1.0,
        1.0,
        1.0
      ],
      "min": [
        -1.0,
        -1.0,
        -1.0
      ],
      "type": "VEC3"
    },
    {
      "bufferView": 1,
      "byteOffset": 609816,
      "componentType": 5126,
      "count": 65532,
      "max": [
        0.8750001192092896,
        1.0000001192092896
      ],
      "min": [
        0.125,
        0.0
      ],
      "type": "VEC2"
    },
    {
      "bufferView": 0,
      "byteOffset": 1474560,
      "componentType": 5125,
      "count": 328119,
      "type": "SCALAR"
    },
    {
      "bufferView": 2,
      "byteOffset": 3402216,
      "componentType": 5126,
      "count": 10695,
      "max": [
        1.0,
        1.2457181215286255,
        1.0
      ],
      "min": [
        -1.0000001192092896,
        -0.1645398885011673,
        -1.0000001192092896
      ],
      "type": "VEC3"
    },
    {
      "bufferView": 2,
      "byteOffset": 3530556,
      "componentType": 5126,
      "count": 10695,
      "max": [
        1.0,
        1.0,
        1.0
      ],
      "min": [
        -1.0,
        -1.0,
        -1.0
      ],
      "type": "VEC3"
    },
    {
      "bufferView": 1,
      "byteOffset": 1134072,
      "componentType": 5126,
      "count": 10695,
      "max": [
        0.8344299793243408,
        1.0000001192092896
      ],
      "min": [
        0.125,
        0.0833333283662796
      ],
      "type": "VEC2"
    },
    {
      "bufferView": 0,
      "byteOffset": 2787036,
      "componentType": 5125,
      "count": 40521,
      "type": "SCALAR"
    },
    {
      "bufferView": 2,
      "byteOffset": 3658896,
      "componentType": 5126,
      "count": 65532,
      "max": [
        1.000000238418579,
        1.2467700242996216,
        1.000000238418579
      ],
      "min": [
        -1.000000238418579,
        -0.1645398885011673,
        -1.000000238418579
      ],
      "type": "VEC3"
    },
    {
      "bufferView": 2,
      "byteOffset": 4445280,
      "componentType": 5126,
      "count": 65532,
      "max": [
        1.0,
        1.0,
        1.0
      ],
      "min": [
        -1.0,
        -1.0,
        -1.0
      ],
      "type": "VEC3"
    },
    {
      "bufferView": 1,
      "byteOffset": 1219632,
      "componentType": 5126,
      "count": 65532,
      "max": [
        0.8750001192092896,
        1.0000001192092896
      ],
      "min": [
        0.125,
        0.0
      ],
      "type": "VEC2"
    },
    {
      "bufferView": 0,
      "byteOffset": 2949120,
      "componentType": 5125,
      "count": 328119,
      "type": "SCALAR"
    },
    {
      "bufferView": 2,
      "byteOffset": 5231664,
      "componentType": 5126,
      "count": 10695,
      "max": [
        1.0,
        1.2457181215286255,
        1.0
      ],
      "min": [
        -1.0000001192092896,
        -0.1645398885011673,
        -1.0000001192092896
      ],
      "type": "VEC3"
    },
    {
      "bufferView": 2,
      "byteOffset": 5360004,
      "componentType": 5126,
      "count": 10695,
      "max": [
        1.0,
        1.0,
        1.0
      ],
      "min": [
        -1.0,
        -1.0,
        -1.0
      ],
      "type": "VEC3"
    },
    {
      "bufferView": 1,
      "byteOffset": 1743888,
      "componentType": 5126,
      "count": 10695,
      "max": [
        0.8344299793243408,
        1.0000001192092896
      ],
      "min": [
        0.125,
        0.0833333283662796
      ],
      "type": "VEC2"
    },
    {
      "bufferView": 0,
      "byteOffset": 4261596,
      "componentType": 5125,
      "count": 40521,
      "type": "SCALAR"
    },
    {
      "bufferView": 3,
      "componentType": 5126,
      "count": 53,
      "max": [
        10.416666984558105
      ],
      "min": [
        0.0416666679084301
      ],
      "type": "SCALAR"
    },
    {
      "bufferView": 4,
      "componentType": 5126,
      "count": 53,
      "max": [
        0.0,
        1.4399998188018799,
        2.0999999046325684
      ],
      "min": [
        -2.0999999046325684,
        0.0,
        -0.0
      ],
      "type": "VEC3"
    },
    {
      "bufferView": 3,
      "byteOffset": 212,
      "componentType": 5126,
      "count": 42,
      "max": [
        10.416666984558105
      ],
      "min": [
        0.0416666679084301
      ],
      "type": "SCALAR"
    },
    {
      "bufferView": 4,
      "byteOffset": 636,
      "componentType": 5126,
      "count": 42,
      "max": [
        0.0,
        2.653071880340576,
        2.0999999046325684
      ],
      "min": [
        0.0,
        0.0,
        -0.0
      ],
      "type": "VEC3"
    }
  ],
  "animations": [
    {
      "channels": [
        {
          "sampler": 0,
          "target": {
            "node": 6,
            "path": "translation"
          }
        },
        {
          "sampler": 1,
          "target": {
            "node": 9,
            "path": "translation"
          }
        }
      ],
      "name": "Animation",
      "samplers": [
        {
          "input": 24,
          "interpolation": "LINEAR",
          "output": 25
        },
        {
          "input": 26,
          "interpolation": "LINEAR",
          "output": 27
        }
      ]
    }
  ],
  "asset": {
    "extras": {
      "author": "borkia (https://sketchfab.com/borkia)",
      "license": "CC-BY-4.0 (http://creativecommons.org/licenses/by/4.0/)",
      "source": "https://sketchfab.com/3d-models/rgb-lego-cubes-975bf895b42a4c6ab491625019732382",
      "title": "RGB lego cubes"
    },
    "generator": "Sketchfab-12.67.0",
    "version": "2.0"
  },
  "bufferViews": [
    {
      "buffer": 0,
      "byteLength": 4423680,
      "name": "floatBufferViews",
      "target": 34963
    },
    {
      "buffer": 0,
      "byteLength": 1829448,
      "byteOffset": 4423680,
      "byteStride": 8,
      "name": "floatBufferViews",
      "target": 34962
    },
    {
      "buffer": 0,
      "byteLength": 5488344,
      "byteOffset": 6253128,
      "byteStride": 12,
      "name": "floatBufferViews",
      "target": 34962
    },
    {
      "buffer": 0,
      "byteLength": 380,
      "byteOffset": 11741472,
      "name": "floatBufferViews"
    },
    {
      "buffer": 0,
      "byteLength": 1140,
      "byteOffset": 11741852,
      "byteStride": 12,
      "name": "floatBufferViews"
    }
  ],
  "buffers": [
    {
      "byteLength": 11742992,
      "uri": "scene.bin"
    }
  ],
  "materials": [
    {
      "doubleSided": true,
      "name": "High_Gloss_Plastic_red",
      "pbrMetallicRoughness": {
        "baseColorFactor": [
          1.0,
          0.0006849502726102095,
          0.0006849502726102095,
          1.0
        ],
        "roughnessFactor": 0.8370807926829268
      }
    },
    {
      "doubleSided": true,
      "name": "High_Gloss_Plastic_blue",
      "pbrMetallicRoughness": {
        "baseColorFactor": [
          0.0016744912637926585,
          0.16641837253963984,
          0.9504074916579607,
          1.0
        ],
        "metallicFactor": 0.8797637195121951,
        "roughnessFactor": 0.8214557926829268
      }
    },
    {
      "doubleSided": true,
      "name": "High_Gloss_Plastic_green",
      "pbrMetallicRoughness": {
        "baseColorFactor": [
          0.0010910712307065282,
          0.36366537358421636,
          0.004715179517155282,
          1.0
        ],
        "roughnessFactor": 0.9224466463414634
      }
    }
  ],
  "meshes": [
    {
      "name": "Object_0",
      "primitives": [
        {
          "attributes": {
            "NORMAL": 1,
            "POSITION": 0,
            "TEXCOORD_0": 2
          },
          "indices": 3,
          "material": 0,
          "mode": 4
        }
      ]
    },
    {
      "name": "Object_1",
      "primitives": [
        {
          "attributes": {
            "NORMAL": 5,
            "POSITION": 4,
            "TEXCOORD_0": 6
          },
          "indices": 7,
          "material": 0,
          "mode": 4
        }
      ]
    },
    {
      "name": "Object_2",
      "primitives": [
        {
          "attributes": {
            "NORMAL": 9,
            "POSITION": 8,
            "TEXCOORD_0": 10
          },
          "indices": 11,
          "material": 1,
          "mode": 4
        }
      ]
    },
    {
      "name": "Object_3",
      "primitives": [
        {
          "attributes": {
            "NORMAL": 13,
            "POSITION": 12,
            "TEXCOORD_0": 14
          },
          "indices": 15,
          "material": 1,
          "mode": 4
        }
      ]
    },
    {
      "name": "Object_4",
      "primitives": [
        {
          "attributes": {
            "NORMAL": 17,
            "POSITION": 16,
            "TEXCOORD_0": 18
          },
          "indices": 19,
          "material": 2,
          "mode": 4
        }
      ]
    },
    {
      "name": "Object_5",
      "primitives": [
        {
          "attributes": {
            "NORMAL": 21,
            "POSITION": 20,
            "TEXCOORD_0": 22
          },
          "indices": 23,
          "material": 2,
          "mode": 4
        }
      ]
    }
  ],
  "nodes": [
    {
      "children": [
        1
      ],
      "matrix": [
        1.0,
        0.0,
        0.0,
        0.0,
        0.0,
        2.220446049250313e-16,
        -1.0,
        0.0,
        0.0,
        1.0,
        2.220446049250313e-16,
        0.0,
        0.0,
        0.0,
        0.0,
        1.0
      ],
      "name": "Sketchfab_model"
    },
    {
      "children": [
        2
      ],
      "name": "root"
    },
    {
      "children": [
        3,
        6,
        9
      ],
      "matrix": [
        1.0,
        0.0,
        0.0,
        0.0,
        0.0,
        2.220446049250313e-16,
        1.0,
        0.0,
        0.0,
        -1.0,
        2.220446049250313e-16,
        0.0,
        0.0,
        0.0,
        0.0,
        1.0
      ],
      "name": "GLTF_SceneRootNode"
    },
    {
      "children": [
        4,
        5
      ],
      "name": "LEGO_CUBE-R_0"
    },
    {
      "mesh": 0,
      "name": "Object_4"
    },
    {
      "mesh": 1,
      "name": "Object_5"
    },
    {
      "children": [
        7,
        8
      ],
      "name": "LEGO_CUBE-B_1",
      "translation": [
        0.0,
        1.1799999475479126,
        0.0
      ]
    },
    {
      "mesh": 2,
      "name": "Object_7"
    },
    {
      "mesh": 3,
      "name": "Object_8"
    },
    {
      "children": [
        10,
        11
      ],
      "name": "LEGO_CUBE-G_2",
      "translation": [
        0.0,
        2.359999895095825,
        0.0
      ]
    },
    {
      "mesh": 4,
      "name": "Object_10"
    },
    {
      "mesh": 5,
      "name": "Object_11"
    }
  ],
  "scene": 0,
  "scenes": [
    {
      "name": "Sketchfab_Scene",
      "nodes": [
        0
      ]
    }
  ]
}
