{
  "accessors": [
    {
      "bufferView": 1,
      "componentType": 5126,
      "count": 48222,
      "max": [
        75.0,
        44.0,
        43.100250244140625
      ],
      "min": [
        -45.0,
        -14.477999687194824,
        -5.0
      ],
      "type": "VEC3"
    },
    {
      "bufferView": 1,
      "byteOffset": 578664,
      "componentType": 5126,
      "count": 48222,
      "max": [
        0.998802661895752,
        0.9988027811050415,
        1.0
      ],
      "min": [
        -0.998802661895752,
        -0.9988027811050415,
        -1.0
      ],
      "type": "VEC3"
    },
    {
      "bufferView": 2,
      "componentType": 5126,
      "count": 48222,
      "max": [
        0.8627451062202454,
        0.8901960849761963,
        0.8980392217636108,
        1.0
      ],
      "min": [
        0.8627451062202454,
        0.8901960849761963,
        0.8980392217636108,
        1.0
      ],
      "type": "VEC4"
    },
    {
      "bufferView": 0,
      "componentType": 5125,
      "count": 49164,
      "type": "SCALAR"
    },
    {
      "bufferView": 1,
      "byteOffset": 1157328,
      "componentType": 5126,
      "count": 9908,
      "max": [
        90.92700958251953,
        112.7979965209961,
        43.0
      ],
      "min": [
        -60.92700958251953,
        -14.486000061035156,
        -18.493999481201172
      ],
      "type": "VEC3"
    },
    {
      "bufferView": 1,
      "byteOffset": 1276224,
      "componentType": 5126,
      "count": 9908,
      "max": [
        1.0,
        1.0,
        1.0
      ],
      "min": [
        -1.0,
        -1.0,
        -1.0
      ],
      "type": "VEC3"
    },
    {
      "bufferView": 2,
      "byteOffset": 771552,
      "componentType": 5126,
      "count": 9908,
      "max": [
        0.16862745583057404,
        0.18039216101169586,
        0.1882352977991104,
        1.0
      ],
      "min": [
        0.16862745583057404,
        0.18039216101169586,
        0.1882352977991104,
        1.0
      ],
      "type": "VEC4"
    },
    {
      "bufferView": 0,
      "byteOffset": 196656,
      "componentType": 5125,
      "count": 10848,
      "type": "SCALAR"
    },
    {
      "bufferView": 1,
      "byteOffset": 1395120,
      "componentType": 5126,
      "count": 32988,
      "max": [
        59.926998138427734,
        40.180999755859375,
        103.7979965209961
      ],
      "min": [
        -50.073001861572266,
        25.809999465942383,
        73.7979965209961
      ],
      "type": "VEC3"
    },
    {
      "bufferView": 1,
      "byteOffset": 1790976,
      "componentType": 5126,
      "count": 32988,
      "max": [
        1.0,
        1.0,
        1.0
      ],
      "min": [
        -1.0,
        -1.0,
        -1.0
      ],
      "type": "VEC3"
    },
    {
      "bufferView": 2,
      "byteOffset": 930080,
      "componentType": 5126,
      "count": 32988,
      "max": [
        0.3450980484485626,
        0.3450980484485626,
        0.3450980484485626,
        1.0
      ],
      "min": [
        0.29411765933036804,
        0.29411765933036804,
        0.29411765933036804,
        1.0
      ],
      "type": "VEC4"
    },
    {
      "bufferView": 0,
      "byteOffset": 240048,
      "componentType": 5125,
      "count": 33204,
      "type": "SCALAR"
    },
    {
      "bufferView": 1,
      "byteOffset": 2186832,
      "componentType": 5126,
      "count": 6350,
      "max": [
        15.927000045776367,
        40.05756759643555,
        103.7979965209961
      ],
      "min": [
        -6.072999954223633,
        27.809999465942383,
        81.7979965209961
      ],
      "type": "VEC3"
    },
    {
      "bufferView": 1,
      "byteOffset": 2263032,
      "componentType": 5126,
      "count": 6350,
      "max": [
        0.9952050447463989,
        1.0,
        0.9952049255371094
      ],
      "min": [
        -0.9952049851417542,
        -0.9991243481636047,
        -0.9952049851417542
      ],
      "type": "VEC3"
    },
    {
      "bufferView": 2,
      "byteOffset": 1457888,
      "componentType": 5126,
      "count": 6350,
      "max": [
        0.3450980484485626,
        0.3450980484485626,
        0.3450980484485626,
        1.0
      ],
      "min": [
        0.29411765933036804,
        0.29411765933036804,
        0.29411765933036804,
        1.0
      ],
      "type": "VEC4"
    },
    {
      "bufferView": 0,
      "byteOffset": 372864,
      "componentType": 5125,
      "count": 6468,
      "type": "SCALAR"
    },
    {
      "bufferView": 1,
      "byteOffset": 2339232,
      "componentType": 5126,
      "count": 56870,
      "max": [
        59.926998138427734,
        40.900001525878906,
        104.0479965209961
      ],
      "min": [
        -50.073001861572266,
        39.40299987792969,
        73.7979965209961
      ],
      "type": "VEC3"
    },
    {
      "bufferView": 1,
      "byteOffset": 3021672,
      "componentType": 5126,
      "count": 56870,
      "max": [
        1.0,
        1.0,
        1.0
      ],
      "min": [
        -0.9919528961181641,
        -1.0,
        -1.0
      ],
      "type": "VEC3"
    },
    {
      "bufferView": 2,
      "byteOffset": 1559488,
      "componentType": 5126,
      "count": 56870,
      "max": [
        0.3803921639919281,
        0.4000000059604645,
        0.4156862795352936,
        1.0
      ],
      "min": [
        0.3803921639919281,
        0.4000000059604645,
        0.4156862795352936,
        1.0
      ],
      "type": "VEC4"
    },
    {
      "bufferView": 0,
      "byteOffset": 398736,
      "componentType": 5125,
      "count": 56883,
      "type": "SCALAR"
    }
  ],
  "asset": {
    "extras": {
      "author": "bruce2022 (https://sketchfab.com/bruce2022)",
      "license": "CC-BY-4.0 (http://creativecommons.org/licenses/by/4.0/)",
      "source": "https://sketchfab.com/3d-models/800-series-diamondtm-htm82-08fb83e6638b407cb518062e49dea211",
      "title": "800 Series Diamond™ HTM82"
    },
    "generator": "Sketchfab-15.38.0",
    "version": "2.0"
  },
  "bufferViews": [
    {
      "buffer": 0,
      "byteLength": 626268,
      "name": "floatBufferViews",
      "target": 34963
    },
    {
      "buffer": 0,
      "byteLength": 3704112,
      "byteOffset": 626268,
      "byteStride": 12,
      "name": "floatBufferViews",
      "target": 34962
    },
    {
      "buffer": 0,
      "byteLength": 2469408,
      "byteOffset": 4330380,
      "byteStride": 16,
      "name": "floatBufferViews",
      "target": 34962
    }
  ],
  "buffers": [
    {
      "byteLength": 6799788,
      "uri": "scene.bin"
    }
  ],
  "extensionsUsed": [
    "KHR_materials_specular"
  ],
  "materials": [
    {
      "doubleSided": true,
      "extensions": {
        "KHR_materials_specular": {
          "specularColorFactor": [
            1.0,
            1.0,
            1.0
          ],
          "specularFactor": 0.3593255622477619
        }
      },
      "name": "material",
      "pbrMetallicRoughness": {
        "baseColorFactor": [
          0.8609343807754789,
          0.8609343807754789,
          0.8609343807754789,
          1.0
        ],
        "metallicFactor": 0.7936453929241998,
        "roughnessFactor": 0.0
      }
    },
    {
      "name": "lambert2SG.002",
      "pbrMetallicRoughness": {
        "baseColorFactor": [
          0.7339261398172899,
          0.7339261398172899,
          0.7339261398172899,
          1.0
        ],
        "roughnessFactor": 0.0
      }
    },
    {
      "doubleSided": true,
      "name": ".003",
      "pbrMetallicRoughness": {
        "baseColorFactor": [
          0.0,
          0.0,
          0.0,
          1.0
        ],
        "metallicFactor": 0.0,
        "roughnessFactor": 0.748705
      }
    },
    {
      "doubleSided": true,
      "name": ".004",
      "pbrMetallicRoughness": {
        "metallicFactor": 0.0362694
      }
    },
    {
      "doubleSided": true,
      "name": ".001",
      "pbrMetallicRoughness": {
        "baseColorFactor": [
          0.0,
          0.0,
          0.0,
          1.0
        ],
        "metallicFactor": 0.0,
        "roughnessFactor": 0.194301
      }
    }
  ],
  "meshes": [
    {
      "name": "Object_0",
      "primitives": [
        {
          "attributes": {
            "COLOR_0": 2,
            "NORMAL": 1,
            "POSITION": 0
          },
          "indices": 3,
          "material": 0,
          "mode": 4
        }
      ]
    },
    {
      "name": "Object_1",
      "primitives": [
        {
          "attributes": {
            "COLOR_0": 6,
            "NORMAL": 5,
            "POSITION": 4
          },
          "indices": 7,
          "material": 1,
          "mode": 4
        }
      ]
    },
    {
      "name": "Object_2",
      "primitives": [
        {
          "attributes": {
            "COLOR_0": 10,
            "NORMAL": 9,
            "POSITION": 8
          },
          "indices": 11,
          "material": 2,
          "mode": 4
        }
      ]
    },
    {
      "name": "Object_3",
      "primitives": [
        {
          "attributes": {
            "COLOR_0": 14,
            "NORMAL": 13,
            "POSITION": 12
          },
          "indices": 15,
          "material": 3,
          "mode": 4
        }
      ]
    },
    {
      "name": "Object_4",
      "primitives": [
        {
          "attributes": {
            "COLOR_0": 18,
            "NORMAL": 17,
            "POSITION": 16
          },
          "indices": 19,
          "material": 4,
          "mode": 4
        }
      ]
    }
  ],
  "nodes": [
    {
      "children": [
        1
      ],
      "matrix": [
        1.0,
        0.0,
        0.0,
        0.0,
        0.0,
        2.220446049250313e-16,
        -1.0,
        0.0,
        0.0,
        1.0,
        2.220446049250313e-16,
        0.0,
        0.0,
        0.0,
        0.0,
        1.0
      ],
      "name": "Sketchfab_model"
    },
    {
      "children": [
        2
      ],
      "name": "root"
    },
    {
      "children": [
        3,
        6,
        9,
        13
      ],
      "matrix": [
        1.0,
        0.0,
        0.0,
        0.0,
        0.0,
        2.220446049250313e-16,
        1.0,
        0.0,
        0.0,
        -1.0,
        2.220446049250313e-16,
        0.0,
        0.0,
        0.0,
        0.0,
        1.0
      ],
      "name": "GLTF_SceneRootNode"
    },
    {
      "children": [
        4
      ],
      "matrix": [
        0.10000002384185791,
        0.0,
        0.0,
        0.0,
        -0.0,
        -0.10000002384185791,
        0.0,
        0.0,
        0.0,
        0.0,
        -0.10000002384185791,
        0.0,
        0.0,
        11.349199295043945,
        1.0530893802642822,
        1.0
      ],
      "name": "Node_1_1"
    },
    {
      "children": [
        5
      ],
      "name": "Mesh_Mesh_head_geo.001_lambert2SG.001_0"
    },
    {
      "mesh": 0,
      "name": "Object_5"
    },
    {
      "children": [
        7
      ],
      "matrix": [
        0.10000002384185791,
        0.0,
        0.0,
        0.0,
        -0.0,
        -0.10000002384185791,
        0.0,
        0.0,
        0.0,
        0.0,
        -0.10000002384185791,
        0.0,
        0.0,
        11.349199295043945,
        1.0530893802642822,
        1.0
      ],
      "name": "Node_1.001_3"
    },
    {
      "children": [
        8
      ],
      "name": "Mesh_Mesh_head_geo.001_lambert2SG.002_2"
    },
    {
      "mesh": 1,
      "name": "Object_8"
    },
    {
      "children": [
        10
      ],
      "matrix": [
        1.0,
        0.0,
        0.0,
        0.0,
        -0.0,
        -1.0,
        0.0,
        0.0,
        0.0,
        0.0,
        -1.0,
        0.0,
        0.0,
        11.349199295043945,
        1.0530893802642822,
        1.0
      ],
      "name": "Node_1.002_5"
    },
    {
      "children": [
        11,
        12
      ],
      "matrix": [
        0.10000002384185791,
        0.0,
        0.0,
        0.0,
        0.0,
        0.0,
        0.10000002384185791,
        0.0,
        0.0,
        -0.10000002384185791,
        0.0,
        0.0,
        1.010310173034668,
        11.255022048950195,
        -0.1823456883430481,
        1.0
      ],
      "name": "Mesh_Mesh_head_geo.001_lambert2SG.003_4"
    },
    {
      "mesh": 2,
      "name": "Object_11"
    },
    {
      "mesh": 3,
      "name": "Object_12"
    },
    {
      "children": [
        14
      ],
      "matrix": [
        0.10000002384185791,
        0.0,
        0.0,
        0.0,
        0.0,
        0.0,
        -0.10000002384185791,
        0.0,
        0.0,
        0.10000002384185791,
        0.0,
        0.0,
        1.0022870302200317,
        0.08155155181884766,
        1.0530898571014404,
        1.0
      ],
      "name": "Node_1.003_7"
    },
    {
      "children": [
        15
      ],
      "matrix": [
        1.0,
        0.0,
        0.0,
        0.0,
        0.0,
        1.0,
        0.0,
        0.0,
        0.0,
        0.0,
        1.0,
        0.0,
        0.0,
        -1.8847640752792358,
        0.0,
        1.0
      ],
      "name": "Mesh_Mesh_head_geo.001_lambert2SG.004_6"
    },
    {
      "mesh": 4,
      "name": "Object_15"
    }
  ],
  "scene": 0,
  "scenes": [
    {
      "name": "Sketchfab_Scene",
      "nodes": [
        0
      ]
    }
  ]
}
