{
  "accessors": [
    {
      "bufferView": 2,
      "componentType": 5126,
      "count": 4964,
      "max": [
        22.252443313598633,
        5.857132911682129,
        2.143073558807373
      ],
      "min": [
        -22.24749755859375,
        -5.7428693771362305,
        -0.5274643898010254
      ],
      "type": "VEC3"
    },
    {
      "bufferView": 2,
      "byteOffset": 59568,
      "componentType": 5126,
      "count": 4964,
      "max": [
        1.0,
        1.0,
        1.0
      ],
      "min": [
        -1.0,
        -1.0,
        -1.0
      ],
      "type": "VEC3"
    },
    {
      "bufferView": 3,
      "componentType": 5126,
      "count": 4964,
      "max": [
        1.0,
        1.0,
        0.11147024482488632,
        1.0
      ],
      "min": [
        -1.0,
        -1.0,
        -0.11146984249353409,
        1.0
      ],
      "type": "VEC4"
    },
    {
      "bufferView": 1,
      "componentType": 5126,
      "count": 4964,
      "max": [
        0.9964042901992798,
        0.998046875
      ],
      "min": [
        0.001953125,
        0.001953125
      ],
      "type": "VEC2"
    },
    {
      "bufferView": 0,
      "componentType": 5125,
      "count": 9513,
      "type": "SCALAR"
    }
  ],
  "asset": {
    "extras": {
      "author": "Dmytro Rohovyi (https://sketchfab.com/dmitriyslavyanskiy)",
      "license": "CC-BY-4.0 (http://creativecommons.org/licenses/by/4.0/)",
      "source": "https://sketchfab.com/3d-models/wireless-keyboard-620c9d52d9e44b4da8aa7931ff0152b2",
      "title": "Wireless keyboard"
    },
    "generator": "Sketchfab-12.67.0",
    "version": "2.0"
  },
  "bufferViews": [
    {
      "buffer": 0,
      "byteLength": 38052,
      "name": "floatBufferViews",
      "target": 34963
    },
    {
      "buffer": 0,
      "byteLength": 39712,
      "byteOffset": 38052,
      "byteStride": 8,
      "name": "floatBufferViews",
      "target": 34962
    },
    {
      "buffer": 0,
      "byteLength": 119136,
      "byteOffset": 77764,
      "byteStride": 12,
      "name": "floatBufferViews",
      "target": 34962
    },
    {
      "buffer": 0,
      "byteLength": 79424,
      "byteOffset": 196900,
      "byteStride": 16,
      "name": "floatBufferViews",
      "target": 34962
    }
  ],
  "buffers": [
    {
      "byteLength": 276324,
      "uri": "scene.bin"
    }
  ],
  "images": [
    {
      "uri": "textures/key_mat_baseColor.png"
    },
    {
      "uri": "textures/key_mat_metallicRoughness.png"
    },
    {
      "uri": "textures/key_mat_normal.png"
    }
  ],
  "materials": [
    {
      "doubleSided": true,
      "name": "key_mat",
      "normalTexture": {
        "index": 2
      },
      "occlusionTexture": {
        "index": 1
      },
      "pbrMetallicRoughness": {
        "baseColorTexture": {
          "index": 0
        },
        "metallicRoughnessTexture": {
          "index": 1
        }
      }
    }
  ],
  "meshes": [
    {
      "name": "klava_key_mat_0",
      "primitives": [
        {
          "attributes": {
            "NORMAL": 1,
            "POSITION": 0,
            "TANGENT": 2,
            "TEXCOORD_0": 3
          },
          "indices": 4,
          "material": 0,
          "mode": 4
        }
      ]
    }
  ],
  "nodes": [
    {
      "children": [
        1
      ],
      "matrix": [
        1.0,
        0.0,
        0.0,
        0.0,
        0.0,
        2.220446049250313e-16,
        -1.0,
        0.0,
        0.0,
        1.0,
        2.220446049250313e-16,
        0.0,
        0.0,
        0.0,
        0.0,
        1.0
      ],
      "name": "Sketchfab_model"
    },
    {
      "children": [
        2
      ],
      "matrix": [
        1.0,
        0.0,
        0.0,
        0.0,
        0.0,
        0.0,
        1.0,
        0.0,
        0.0,
        -1.0,
        0.0,
        0.0,
        0.0,
        0.0,
        0.0,
        1.0
      ],
      "name": "541a9f100b794d4aa7725ab66e2bc53f.fbx"
    },
    {
      "children": [
        3
      ],
      "name": "RootNode"
    },
    {
      "children": [
        4
      ],
      "matrix": [
        1.0,
        0.0,
        0.0,
        0.0,
        0.0,
        0.11146894714064692,
        -0.9937679174854438,
        0.0,
        0.0,
        0.9937679174854438,
        0.11146894714064692,
        0.0,
        0.0,
        1.862645149230957e-07,
        1.1641532182693481e-08,
        1.0
      ],
      "name": "klava"
    },
    {
      "mesh": 0,
      "name": "klava_key_mat_0"
    }
  ],
  "samplers": [
    {
      "magFilter": 9729,
      "minFilter": 9987,
      "wrapS": 10497,
      "wrapT": 10497
    }
  ],
  "scene": 0,
  "scenes": [
    {
      "name": "Sketchfab_Scene",
      "nodes": [
        0
      ]
    }
  ],
  "textures": [
    {
      "sampler": 0,
      "source": 0
    },
    {
      "sampler": 0,
      "source": 1
    },
    {
      "sampler": 0,
      "source": 2
    }
  ]
}
