{
  "accessors": [
    {
      "bufferView": 2,
      "componentType": 5126,
      "count": 5440,
      "max": [
        69.60667419433594,
        21.428550720214844,
        -131.00242614746094
      ],
      "min": [
        -59.26890563964844,
        -17.742284774780273,
        -164.64529418945313
      ],
      "type": "VEC3"
    },
    {
      "bufferView": 2,
      "byteOffset": 65280,
      "componentType": 5126,
      "count": 5440,
      "max": [
        1.0,
        1.0,
        1.0
      ],
      "min": [
        -1.0,
        -1.0,
        -1.0
      ],
      "type": "VEC3"
    },
    {
      "bufferView": 3,
      "componentType": 5126,
      "count": 5440,
      "max": [
        1.0,
        1.0,
        1.0,
        1.0
      ],
      "min": [
        -1.0,
        -1.0,
        -1.0,
        1.0
      ],
      "type": "VEC4"
    },
    {
      "bufferView": 1,
      "componentType": 5126,
      "count": 5440,
      "max": [
        0.9822728633880615,
        0.9868991374969482
      ],
      "min": [
        0.014507584273815155,
        0.006084301974624395
      ],
      "type": "VEC2"
    },
    {
      "bufferView": 0,
      "componentType": 5125,
      "count": 9672,
      "type": "SCALAR"
    },
    {
      "bufferView": 2,
      "byteOffset": 130560,
      "componentType": 5126,
      "count": 17934,
      "max": [
        67.62274169921875,
        20.272506713867188,
        -125.28075408935547
      ],
      "min": [
        -57.72773361206055,
        -16.72952651977539,
        -139.4919891357422
      ],
      "type": "VEC3"
    },
    {
      "bufferView": 2,
      "byteOffset": 345768,
      "componentType": 5126,
      "count": 17934,
      "max": [
        0.9999405741691589,
        0.9998171329498291,
        0.9999979138374329
      ],
      "min": [
        -0.9999421238899231,
        -0.9999995827674866,
        -1.0
      ],
      "type": "VEC3"
    },
    {
      "bufferView": 3,
      "byteOffset": 87040,
      "componentType": 5126,
      "count": 17934,
      "max": [
        1.0,
        0.9907827377319336,
        0.9999995827674866,
        1.0
      ],
      "min": [
        -1.0,
        -1.0,
        -0.9999995827674866,
        -1.0
      ],
      "type": "VEC4"
    },
    {
      "bufferView": 1,
      "byteOffset": 43520,
      "componentType": 5126,
      "count": 17934,
      "max": [
        0.999500036239624,
        0.9914186596870422
      ],
      "min": [
        0.0005000000237487257,
        0.0005000000237487257
      ],
      "type": "VEC2"
    },
    {
      "bufferView": 0,
      "byteOffset": 38688,
      "componentType": 5125,
      "count": 38688,
      "type": "SCALAR"
    }
  ],
  "asset": {
    "extras": {
      "author": "BigBrotherHCH (https://sketchfab.com/BigBrotherHCH)",
      "license": "CC-BY-4.0 (http://creativecommons.org/licenses/by/4.0/)",
      "source": "https://sketchfab.com/3d-models/mechanical-rgb-keyboard-4650f5bafe934a90b9f09396b843a966",
      "title": "Mechanical RGB Keyboard"
    },
    "generator": "Sketchfab-12.68.0",
    "version": "2.0"
  },
  "bufferViews": [
    {
      "buffer": 0,
      "byteLength": 193440,
      "name": "floatBufferViews",
      "target": 34963
    },
    {
      "buffer": 0,
      "byteLength": 186992,
      "byteOffset": 193440,
      "byteStride": 8,
      "name": "floatBufferViews",
      "target": 34962
    },
    {
      "buffer": 0,
      "byteLength": 560976,
      "byteOffset": 380432,
      "byteStride": 12,
      "name": "floatBufferViews",
      "target": 34962
    },
    {
      "buffer": 0,
      "byteLength": 373984,
      "byteOffset": 941408,
      "byteStride": 16,
      "name": "floatBufferViews",
      "target": 34962
    }
  ],
  "buffers": [
    {
      "byteLength": 1315392,
      "uri": "scene.bin"
    }
  ],
  "images": [
    {
      "uri": "textures/board_baseColor.jpeg"
    },
    {
      "uri": "textures/board_metallicRoughness.png"
    },
    {
      "uri": "textures/board_emissive.jpeg"
    },
    {
      "uri": "textures/board_normal.png"
    },
    {
      "uri": "textures/keys_baseColor.jpeg"
    },
    {
      "uri": "textures/keys_metallicRoughness.png"
    },
    {
      "uri": "textures/keys_emissive.jpeg"
    },
    {
      "uri": "textures/keys_normal.png"
    }
  ],
  "materials": [
    {
      "doubleSided": true,
      "emissiveFactor": [
        1.0,
        1.0,
        1.0
      ],
      "emissiveTexture": {
        "index": 2
      },
      "name": "board",
      "normalTexture": {
        "index": 3
      },
      "pbrMetallicRoughness": {
        "baseColorTexture": {
          "index": 0
        },
        "metallicFactor": 0.983422256097561,
        "metallicRoughnessTexture": {
          "index": 1
        }
      }
    },
    {
      "doubleSided": true,
      "emissiveFactor": [
        1.0,
        1.0,
        1.0
      ],
      "emissiveTexture": {
        "index": 6
      },
      "name": "keys",
      "normalTexture": {
        "index": 7
      },
      "pbrMetallicRoughness": {
        "baseColorTexture": {
          "index": 4
        },
        "metallicRoughnessTexture": {
          "index": 5
        },
        "roughnessFactor": 0.5504954268292683
      }
    }
  ],
  "meshes": [
    {
      "name": "Board_board_0",
      "primitives": [
        {
          "attributes": {
            "NORMAL": 1,
            "POSITION": 0,
            "TANGENT": 2,
            "TEXCOORD_0": 3
          },
          "indices": 4,
          "material": 0,
          "mode": 4
        }
      ]
    },
    {
      "name": "keys_keys_0",
      "primitives": [
        {
          "attributes": {
            "NORMAL": 6,
            "POSITION": 5,
            "TANGENT": 7,
            "TEXCOORD_0": 8
          },
          "indices": 9,
          "material": 1,
          "mode": 4
        }
      ]
    }
  ],
  "nodes": [
    {
      "children": [
        1
      ],
      "matrix": [
        1.0,
        0.0,
        0.0,
        0.0,
        0.0,
        2.220446049250313e-16,
        -1.0,
        0.0,
        0.0,
        1.0,
        2.220446049250313e-16,
        0.0,
        0.0,
        0.0,
        0.0,
        1.0
      ],
      "name": "Sketchfab_model"
    },
    {
      "children": [
        2
      ],
      "matrix": [
        1.0,
        0.0,
        0.0,
        0.0,
        0.0,
        0.0,
        1.0,
        0.0,
        0.0,
        -1.0,
        0.0,
        0.0,
        0.0,
        0.0,
        0.0,
        1.0
      ],
      "name": "091d1ed9629c4bf7be5638e553efc8eb.fbx"
    },
    {
      "children": [
        3,
        6
      ],
      "name": "RootNode"
    },
    {
      "children": [
        4
      ],
      "matrix": [
        1.0,
        0.0,
        0.0,
        0.0,
        0.0,
        2.220446049250313e-16,
        -1.0,
        0.0,
        0.0,
        0.27676600217819214,
        6.145439761033703e-17,
        0.0,
        0.0,
        0.0,
        0.0,
        1.0
      ],
      "name": "Board"
    },
    {
      "children": [
        5
      ],
      "matrix": [
        1.0,
        0.0,
        -0.0,
        0.0,
        0.0,
        1.0,
        0.0,
        0.0,
        0.0,
        0.0,
        1.0,
        0.0,
        -5.16888427734375,
        -1.8431329727172852,
        150.48304748535156,
        1.0
      ],
      "name": "Object_4"
    },
    {
      "mesh": 0,
      "name": "Board_board_0"
    },
    {
      "children": [
        7
      ],
      "matrix": [
        1.0,
        0.0,
        0.0,
        0.0,
        0.0,
        2.220446049250313e-16,
        -1.0,
        0.0,
        0.0,
        0.27676600217819214,
        6.145439761033703e-17,
        0.0,
        0.0,
        5.026269912719727,
        0.0,
        1.0
      ],
      "name": "keys"
    },
    {
      "children": [
        8
      ],
      "matrix": [
        1.0,
        0.0,
        -0.0,
        0.0,
        0.0,
        1.0,
        0.0,
        0.0,
        0.0,
        0.0,
        1.0,
        0.0,
        -4.947504043579102,
        -1.7758903503417969,
        133.03175354003906,
        1.0
      ],
      "name": "Object_7"
    },
    {
      "mesh": 1,
      "name": "keys_keys_0"
    }
  ],
  "samplers": [
    {
      "magFilter": 9729,
      "minFilter": 9987,
      "wrapS": 10497,
      "wrapT": 10497
    }
  ],
  "scene": 0,
  "scenes": [
    {
      "name": "Sketchfab_Scene",
      "nodes": [
        0
      ]
    }
  ],
  "textures": [
    {
      "sampler": 0,
      "source": 0
    },
    {
      "sampler": 0,
      "source": 1
    },
    {
      "sampler": 0,
      "source": 2
    },
    {
      "sampler": 0,
      "source": 3
    },
    {
      "sampler": 0,
      "source": 4
    },
    {
      "sampler": 0,
      "source": 5
    },
    {
      "sampler": 0,
      "source": 6
    },
    {
      "sampler": 0,
      "source": 7
    }
  ]
}
