{
  "accessors": [
    {
      "bufferView": 2,
      "componentType": 5126,
      "count": 45,
      "max": [
        1.9999998807907104,
        1.6500000953674316,
        0.9618422985076904
      ],
      "min": [
        -2.0,
        -1.350000023841858,
        0.7808660268783569
      ],
      "type": "VEC3"
    },
    {
      "bufferView": 2,
      "byteOffset": 540,
      "componentType": 5126,
      "count": 45,
      "max": [
        1.0,
        1.0,
        0.9990344643592834
      ],
      "min": [
        -1.0,
        -1.0,
        0.0
      ],
      "type": "VEC3"
    },
    {
      "bufferView": 1,
      "componentType": 5126,
      "count": 45,
      "max": [
        0.94623863697052,
        0.8408635854721069
      ],
      "min": [
        0.05376136302947998,
        0.15913641452789307
      ],
      "type": "VEC2"
    },
    {
      "bufferView": 1,
      "byteOffset": 360,
      "componentType": 5126,
      "count": 45,
      "max": [
        0.9330199360847473,
        0.9980079531669617
      ],
      "min": [
        0.0018623153446242213,
        0.0019920319318771362
      ],
      "type": "VEC2"
    },
    {
      "bufferView": 0,
      "componentType": 5125,
      "count": 117,
      "type": "SCALAR"
    },
    {
      "bufferView": 2,
      "byteOffset": 1080,
      "componentType": 5126,
      "count": 123,
      "max": [
        2.5,
        2.0610814094543457,
        0.7808660268783569
      ],
      "min": [
        -2.502811908721924,
        -2.047950506210327,
        -3.433748722076416
      ],
      "type": "VEC3"
    },
    {
      "bufferView": 2,
      "byteOffset": 2556,
      "componentType": 5126,
      "count": 123,
      "max": [
        1.0,
        1.0,
        1.0
      ],
      "min": [
        -1.0,
        -1.0,
        -1.0
      ],
      "type": "VEC3"
    },
    {
      "bufferView": 1,
      "byteOffset": 720,
      "componentType": 5126,
      "count": 123,
      "max": [
        0.970382571220398,
        0.9701229333877563
      ],
      "min": [
        0.02961742877960205,
        0.019323498010635376
      ],
      "type": "VEC2"
    },
    {
      "bufferView": 1,
      "byteOffset": 1704,
      "componentType": 5126,
      "count": 123,
      "max": [
        0.970382571220398,
        0.9701229333877563
      ],
      "min": [
        0.02961742877960205,
        0.019323498010635376
      ],
      "type": "VEC2"
    },
    {
      "bufferView": 0,
      "byteOffset": 468,
      "componentType": 5125,
      "count": 201,
      "type": "SCALAR"
    },
    {
      "bufferView": 2,
      "byteOffset": 4032,
      "componentType": 5126,
      "count": 54,
      "max": [
        2.0165772438049316,
        -1.8768314123153687,
        0.10346424579620361
      ],
      "min": [
        -2.111908435821533,
        -2.590057134628296,
        -2.452000617980957
      ],
      "type": "VEC3"
    },
    {
      "bufferView": 2,
      "byteOffset": 4680,
      "componentType": 5126,
      "count": 54,
      "max": [
        0.9999851584434509,
        0.9948172569274902,
        1.0
      ],
      "min": [
        -0.9991787075996399,
        -1.0,
        -1.0
      ],
      "type": "VEC3"
    },
    {
      "bufferView": 1,
      "byteOffset": 2688,
      "componentType": 5126,
      "count": 54,
      "max": [
        0.2559940814971924,
        0.9285657405853271
      ],
      "min": [
        0.044005751609802246,
        0.7714342474937439
      ],
      "type": "VEC2"
    },
    {
      "bufferView": 1,
      "byteOffset": 3120,
      "componentType": 5126,
      "count": 54,
      "max": [
        0.2559940814971924,
        0.9285657405853271
      ],
      "min": [
        0.044005751609802246,
        0.7714342474937439
      ],
      "type": "VEC2"
    },
    {
      "bufferView": 0,
      "byteOffset": 1272,
      "componentType": 5125,
      "count": 84,
      "type": "SCALAR"
    }
  ],
  "asset": {
    "extras": {
      "author": "thehopelessnostalgic (https://sketchfab.com/thehopelessnostalgic)",
      "license": "CC-BY-4.0 (http://creativecommons.org/licenses/by/4.0/)",
      "source": "https://sketchfab.com/3d-models/crt-monitor-e33a8054562b4f959e4e1cd222b9032e",
      "title": "CRT Monitor"
    },
    "generator": "Sketchfab-12.68.0",
    "version": "2.0"
  },
  "bufferViews": [
    {
      "buffer": 0,
      "byteLength": 1608,
      "name": "floatBufferViews",
      "target": 34963
    },
    {
      "buffer": 0,
      "byteLength": 3552,
      "byteOffset": 1608,
      "byteStride": 8,
      "name": "floatBufferViews",
      "target": 34962
    },
    {
      "buffer": 0,
      "byteLength": 5328,
      "byteOffset": 5160,
      "byteStride": 12,
      "name": "floatBufferViews",
      "target": 34962
    }
  ],
  "buffers": [
    {
      "byteLength": 10488,
      "uri": "scene.bin"
    }
  ],
  "extensionsRequired": [
    "KHR_materials_pbrSpecularGlossiness"
  ],
  "extensionsUsed": [
    "KHR_materials_pbrSpecularGlossiness"
  ],
  "images": [
    {
      "uri": "textures/lambert7_diffuse.png"
    },
    {
      "uri": "textures/lambert6_diffuse.png"
    }
  ],
  "materials": [
    {
      "doubleSided": true,
      "extensions": {
        "KHR_materials_pbrSpecularGlossiness": {
          "diffuseFactor": [
            1.0,
            1.0,
            1.0,
            1.0
          ],
          "diffuseTexture": {
            "index": 0
          },
          "glossinessFactor": 1.0,
          "specularFactor": [
            0.15979455094881104,
            0.15979455094881104,
            0.15979455094881104
          ],
          "specularGlossinessTexture": {
            "index": 0
          }
        }
      },
      "name": "lambert7"
    },
    {
      "doubleSided": true,
      "extensions": {
        "KHR_materials_pbrSpecularGlossiness": {
          "diffuseFactor": [
            1.0,
            1.0,
            1.0,
            1.0
          ],
          "diffuseTexture": {
            "index": 1
          },
          "glossinessFactor": 0.4,
          "specularFactor": [
            0.0,
            0.0,
            0.0
          ]
        }
      },
      "name": "lambert6"
    }
  ],
  "meshes": [
    {
      "name": "screen3_lambert7_0",
      "primitives": [
        {
          "attributes": {
            "NORMAL": 1,
            "POSITION": 0,
            "TEXCOORD_0": 2,
            "TEXCOORD_1": 3
          },
          "indices": 4,
          "material": 0,
          "mode": 4
        }
      ]
    },
    {
      "name": "box2_lambert6_0",
      "primitives": [
        {
          "attributes": {
            "NORMAL": 6,
            "POSITION": 5,
            "TEXCOORD_0": 7,
            "TEXCOORD_1": 8
          },
          "indices": 9,
          "material": 1,
          "mode": 4
        }
      ]
    },
    {
      "name": "stand1_lambert6_0",
      "primitives": [
        {
          "attributes": {
            "NORMAL": 11,
            "POSITION": 10,
            "TEXCOORD_0": 12,
            "TEXCOORD_1": 13
          },
          "indices": 14,
          "material": 1,
          "mode": 4
        }
      ]
    }
  ],
  "nodes": [
    {
      "children": [
        1
      ],
      "matrix": [
        1.0954355001449585,
        0.0,
        0.0,
        0.0,
        0.0,
        2.432355428505414e-16,
        -1.0954355001449585,
        0.0,
        0.0,
        1.0954355001449585,
        2.432355428505414e-16,
        0.0,
        0.0,
        0.0,
        0.0,
        1.0
      ],
      "name": "Sketchfab_model"
    },
    {
      "children": [
        2
      ],
      "matrix": [
        0.009999999776482582,
        0.0,
        0.0,
        0.0,
        0.0,
        0.0,
        0.009999999776482582,
        0.0,
        0.0,
        -0.009999999776482582,
        0.0,
        0.0,
        0.0,
        0.0,
        0.0,
        1.0
      ],
      "name": "80656678ac744bae990d3566af7f549c.fbx"
    },
    {
      "children": [
        3,
        5,
        7
      ],
      "name": "RootNode"
    },
    {
      "children": [
        4
      ],
      "matrix": [
        10.0,
        0.0,
        0.0,
        0.0,
        0.0,
        10.0,
        0.0,
        0.0,
        0.0,
        0.0,
        10.0,
        0.0,
        0.012653589248657227,
        2.5325279235839844,
        10.25,
        1.0
      ],
      "name": "screen3"
    },
    {
      "mesh": 0,
      "name": "screen3_lambert7_0"
    },
    {
      "children": [
        6
      ],
      "matrix": [
        10.0,
        0.0,
        0.0,
        0.0,
        0.0,
        10.0,
        0.0,
        0.0,
        0.0,
        0.0,
        10.0,
        0.0,
        0.012653589248657227,
        2.5325279235839844,
        11.509048461914063,
        1.0
      ],
      "name": "box2"
    },
    {
      "mesh": 1,
      "name": "box2_lambert6_0"
    },
    {
      "children": [
        8
      ],
      "matrix": [
        10.0,
        0.0,
        0.0,
        0.0,
        0.0,
        10.0,
        0.0,
        0.0,
        0.0,
        0.0,
        10.0,
        0.0,
        0.012653589248657227,
        2.5325279235839844,
        11.509048461914063,
        1.0
      ],
      "name": "stand1"
    },
    {
      "mesh": 2,
      "name": "stand1_lambert6_0"
    }
  ],
  "samplers": [
    {
      "magFilter": 9729,
      "minFilter": 9987,
      "wrapS": 10497,
      "wrapT": 10497
    }
  ],
  "scene": 0,
  "scenes": [
    {
      "name": "Sketchfab_Scene",
      "nodes": [
        0
      ]
    }
  ],
  "textures": [
    {
      "sampler": 0,
      "source": 0
    },
    {
      "sampler": 0,
      "source": 1
    }
  ]
}
