{
  "accessors": [
    {
      "bufferView": 2,
      "componentType": 5126,
      "count": 242,
      "max": [
        0.06671108305454254,
        0.011811194941401482,
        0.0006700000376440585
      ],
      "min": [
        -0.06671108305454254,
        -0.01929772086441517,
        -0.0006699990481138229
      ],
      "type": "VEC3"
    },
    {
      "bufferView": 2,
      "byteOffset": 2904,
      "componentType": 5126,
      "count": 242,
      "max": [
        1.0,
        1.0,
        0.0
      ],
      "min": [
        -1.0,
        -1.0,
        0.0
      ],
      "type": "VEC3"
    },
    {
      "bufferView": 1,
      "componentType": 5126,
      "count": 242,
      "max": [
        1.0,
        0.9999995827674866
      ],
      "min": [
        0.0,
        0.0
      ],
      "type": "VEC2"
    },
    {
      "bufferView": 0,
      "componentType": 5125,
      "count": 630,
      "type": "SCALAR"
    },
    {
      "bufferView": 2,
      "byteOffset": 5808,
      "componentType": 5126,
      "count": 278,
      "max": [
        0.06671108305454254,
        0.011811194941401482,
        0.0006700000376440585
      ],
      "min": [
        -0.06671108305454254,
        -0.01929772086441517,
        -0.0006699990481138229
      ],
      "type": "VEC3"
    },
    {
      "bufferView": 2,
      "byteOffset": 9144,
      "componentType": 5126,
      "count": 278,
      "max": [
        1.3850866764641978e-07,
        0.0,
        1.0
      ],
      "min": [
        -9.305203008125318e-08,
        0.0,
        -1.0
      ],
      "type": "VEC3"
    },
    {
      "bufferView": 1,
      "byteOffset": 1936,
      "componentType": 5126,
      "count": 278,
      "max": [
        1.0,
        0.9999997615814209
      ],
      "min": [
        0.0,
        0.0006424784660339355
      ],
      "type": "VEC2"
    },
    {
      "bufferView": 0,
      "byteOffset": 2520,
      "componentType": 5125,
      "count": 1050,
      "type": "SCALAR"
    },
    {
      "bufferView": 2,
      "byteOffset": 12480,
      "componentType": 5126,
      "count": 1920,
      "max": [
        0.06170123070478439,
        0.004344251938164234,
        0.0010848434176295996
      ],
      "min": [
        -0.06197701394557953,
        -0.01451579574495554,
        -0.0010848483070731163
      ],
      "type": "VEC3"
    },
    {
      "bufferView": 2,
      "byteOffset": 35520,
      "componentType": 5126,
      "count": 1920,
      "max": [
        1.0,
        1.0,
        0.707109272480011
      ],
      "min": [
        -1.0,
        -1.0,
        -0.7071070075035095
      ],
      "type": "VEC3"
    },
    {
      "bufferView": 1,
      "byteOffset": 4160,
      "componentType": 5126,
      "count": 1920,
      "max": [
        0.4315115213394165,
        1.0
      ],
      "min": [
        0.125,
        0.0
      ],
      "type": "VEC2"
    },
    {
      "bufferView": 0,
      "byteOffset": 6720,
      "componentType": 5125,
      "count": 3840,
      "type": "SCALAR"
    },
    {
      "bufferView": 2,
      "byteOffset": 58560,
      "componentType": 5126,
      "count": 960,
      "max": [
        0.06170123070478439,
        0.004344251938164234,
        0.001084843068383634
      ],
      "min": [
        -0.06162448972463608,
        -0.014312918297946453,
        -0.0010848481906577945
      ],
      "type": "VEC3"
    },
    {
      "bufferView": 2,
      "byteOffset": 70080,
      "componentType": 5126,
      "count": 960,
      "max": [
        1.0,
        1.0,
        0.707109272480011
      ],
      "min": [
        -1.0,
        -1.0,
        -0.7071070075035095
      ],
      "type": "VEC3"
    },
    {
      "bufferView": 1,
      "byteOffset": 19520,
      "componentType": 5126,
      "count": 960,
      "max": [
        0.43151146173477173,
        0.9166666269302368
      ],
      "min": [
        0.2083333283662796,
        0.3333333134651184
      ],
      "type": "VEC2"
    },
    {
      "bufferView": 0,
      "byteOffset": 22080,
      "componentType": 5125,
      "count": 1440,
      "type": "SCALAR"
    },
    {
      "bufferView": 2,
      "byteOffset": 81600,
      "componentType": 5126,
      "count": 340,
      "max": [
        0.05881718546152115,
        0.000965009443461895,
        0.0017250016098842025
      ],
      "min": [
        -0.054977335035800934,
        -0.010783921927213669,
        -0.0017249982338398695
      ],
      "type": "VEC3"
    },
    {
      "bufferView": 2,
      "byteOffset": 85680,
      "componentType": 5126,
      "count": 340,
      "max": [
        1.0,
        1.0,
        1.0
      ],
      "min": [
        -1.0,
        -1.0,
        -1.0
      ],
      "type": "VEC3"
    },
    {
      "bufferView": 1,
      "byteOffset": 27200,
      "componentType": 5126,
      "count": 340,
      "max": [
        0.9840974807739258,
        0.9836776852607727
      ],
      "min": [
        0.021075278520584106,
        0.013489976525306702
      ],
      "type": "VEC2"
    },
    {
      "bufferView": 0,
      "byteOffset": 27840,
      "componentType": 5125,
      "count": 510,
      "type": "SCALAR"
    },
    {
      "bufferView": 2,
      "byteOffset": 89760,
      "componentType": 5126,
      "count": 2514,
      "max": [
        0.0639057382941246,
        0.01799367368221283,
        0.002896110061556101
      ],
      "min": [
        -0.0639057382941246,
        -0.013809646479785442,
        -0.002896110061556101
      ],
      "type": "VEC3"
    },
    {
      "bufferView": 2,
      "byteOffset": 119928,
      "componentType": 5126,
      "count": 2514,
      "max": [
        1.0,
        1.0,
        1.0
      ],
      "min": [
        -1.0,
        -1.0,
        -1.0
      ],
      "type": "VEC3"
    },
    {
      "bufferView": 3,
      "componentType": 5126,
      "count": 2514,
      "max": [
        1.0,
        1.0,
        1.0,
        1.0
      ],
      "min": [
        -1.0,
        -1.0,
        -1.0,
        -1.0
      ],
      "type": "VEC4"
    },
    {
      "bufferView": 1,
      "byteOffset": 29920,
      "componentType": 5126,
      "count": 2514,
      "max": [
        0.992173433303833,
        0.9993741512298584
      ],
      "min": [
        0.00511593371629715,
        0.005139000713825226
      ],
      "type": "VEC2"
    },
    {
      "bufferView": 1,
      "byteOffset": 50032,
      "componentType": 5126,
      "count": 2514,
      "max": [
        0.992173433303833,
        0.9993741512298584
      ],
      "min": [
        0.00511593371629715,
        0.005139000713825226
      ],
      "type": "VEC2"
    },
    {
      "bufferView": 1,
      "byteOffset": 70144,
      "componentType": 5126,
      "count": 2514,
      "max": [
        0.992173433303833,
        0.9993741512298584
      ],
      "min": [
        0.00511593371629715,
        0.005139000713825226
      ],
      "type": "VEC2"
    },
    {
      "bufferView": 0,
      "byteOffset": 29880,
      "componentType": 5125,
      "count": 6684,
      "type": "SCALAR"
    },
    {
      "bufferView": 2,
      "byteOffset": 150096,
      "componentType": 5126,
      "count": 832,
      "max": [
        0.06356431543827057,
        0.019377795979380608,
        0.002719505690038204
      ],
      "min": [
        -0.06356431543827057,
        0.011957444250583649,
        -0.002719505690038204
      ],
      "type": "VEC3"
    },
    {
      "bufferView": 2,
      "byteOffset": 160080,
      "componentType": 5126,
      "count": 832,
      "max": [
        1.0,
        1.0,
        1.0
      ],
      "min": [
        -1.0,
        -1.0,
        -1.0
      ],
      "type": "VEC3"
    },
    {
      "bufferView": 3,
      "byteOffset": 40224,
      "componentType": 5126,
      "count": 832,
      "max": [
        0.5599017143249512,
        1.0,
        1.0,
        1.0
      ],
      "min": [
        -1.0,
        -1.0,
        -1.0,
        1.0
      ],
      "type": "VEC4"
    },
    {
      "bufferView": 1,
      "byteOffset": 90256,
      "componentType": 5126,
      "count": 832,
      "max": [
        0.9797626733779907,
        0.9966902732849121
      ],
      "min": [
        0.009929219260811806,
        0.0033097323030233383
      ],
      "type": "VEC2"
    },
    {
      "bufferView": 1,
      "byteOffset": 96912,
      "componentType": 5126,
      "count": 832,
      "max": [
        0.9797626733779907,
        0.9966902732849121
      ],
      "min": [
        0.009929219260811806,
        0.0033097323030233383
      ],
      "type": "VEC2"
    },
    {
      "bufferView": 0,
      "byteOffset": 56616,
      "componentType": 5125,
      "count": 1896,
      "type": "SCALAR"
    },
    {
      "bufferView": 4,
      "componentType": 5126,
      "count": 119,
      "max": [
        2.875
      ],
      "min": [
        0.0
      ],
      "type": "SCALAR"
    },
    {
      "bufferView": 5,
      "componentType": 5126,
      "count": 119,
      "max": [
        -1.5040861611748113e-10,
        0.03623032197356224,
        -2.6046279022473584e-10
      ],
      "min": [
        -1.5040861611748113e-10,
        2.465190328815662e-32,
        -2.6046279022473584e-10
      ],
      "type": "VEC3"
    }
  ],
  "animations": [
    {
      "channels": [
        {
          "sampler": 0,
          "target": {
            "node": 10,
            "path": "translation"
          }
        }
      ],
      "name": "Cooler|CoolerAction",
      "samplers": [
        {
          "input": 33,
          "interpolation": "LINEAR",
          "output": 34
        }
      ]
    }
  ],
  "asset": {
    "extras": {
      "author": "BlackCube (https://sketchfab.com/blackcube4)",
      "license": "CC-BY-4.0 (http://creativecommons.org/licenses/by/4.0/)",
      "source": "https://sketchfab.com/3d-models/crucial-ballistix-8gb-ddr4-3600-ram-black-1fce4935471e46cab6ee57ba140c87f9",
      "title": "Crucial BALLISTIX 8GB DDR4 3600 RAM | Black"
    },
    "generator": "Sketchfab-12.67.0",
    "version": "2.0"
  },
  "bufferViews": [
    {
      "buffer": 0,
      "byteLength": 64200,
      "name": "floatBufferViews",
      "target": 34963
    },
    {
      "buffer": 0,
      "byteLength": 103568,
      "byteOffset": 64200,
      "byteStride": 8,
      "name": "floatBufferViews",
      "target": 34962
    },
    {
      "buffer": 0,
      "byteLength": 170064,
      "byteOffset": 167768,
      "byteStride": 12,
      "name": "floatBufferViews",
      "target": 34962
    },
    {
      "buffer": 0,
      "byteLength": 53536,
      "byteOffset": 337832,
      "byteStride": 16,
      "name": "floatBufferViews",
      "target": 34962
    },
    {
      "buffer": 0,
      "byteLength": 476,
      "byteOffset": 391368,
      "name": "floatBufferViews"
    },
    {
      "buffer": 0,
      "byteLength": 1428,
      "byteOffset": 391844,
      "byteStride": 12,
      "name": "floatBufferViews"
    }
  ],
  "buffers": [
    {
      "byteLength": 393272,
      "uri": "scene.bin"
    }
  ],
  "images": [
    {
      "uri": "textures/Front_baseColor.png"
    },
    {
      "uri": "textures/Front_metallicRoughness.png"
    },
    {
      "uri": "textures/Storage_baseColor.png"
    },
    {
      "uri": "textures/Cooler_baseColor.png"
    },
    {
      "uri": "textures/Cooler_metallicRoughness.png"
    },
    {
      "uri": "textures/Cooler_normal.png"
    },
    {
      "uri": "textures/Connecter_baseColor.png"
    },
    {
      "uri": "textures/Connecter_normal.png"
    }
  ],
  "materials": [
    {
      "doubleSided": true,
      "name": "Side",
      "pbrMetallicRoughness": {
        "baseColorFactor": [
          0.0587655,
          0.0790311,
          0.0586283,
          1.0
        ],
        "metallicFactor": 0.0,
        "roughnessFactor": 0.5
      }
    },
    {
      "doubleSided": true,
      "name": "Front",
      "pbrMetallicRoughness": {
        "baseColorTexture": {
          "index": 0
        },
        "metallicRoughnessTexture": {
          "index": 1
        },
        "roughnessFactor": 0.204545
      }
    },
    {
      "doubleSided": true,
      "name": "Silver",
      "pbrMetallicRoughness": {
        "baseColorFactor": [
          0.195988,
          0.195988,
          0.195988,
          1.0
        ],
        "roughnessFactor": 0.3032549316599456
      }
    },
    {
      "doubleSided": true,
      "name": "Bronze",
      "pbrMetallicRoughness": {
        "baseColorFactor": [
          0.3757499999999999,
          0.20946200000000004,
          0.115806,
          1.0
        ],
        "roughnessFactor": 0.32209714072053586
      }
    },
    {
      "doubleSided": true,
      "name": "Storage",
      "pbrMetallicRoughness": {
        "baseColorFactor": [
          0.039464004811681934,
          0.039464004811681934,
          0.039464004811681934,
          1.0
        ],
        "baseColorTexture": {
          "index": 2
        },
        "metallicFactor": 0.0,
        "roughnessFactor": 0.6989413219323412
      }
    },
    {
      "doubleSided": true,
      "name": "Cooler",
      "normalTexture": {
        "index": 5
      },
      "pbrMetallicRoughness": {
        "baseColorTexture": {
          "index": 3
        },
        "metallicFactor": 0.7680294218211721,
        "metallicRoughnessTexture": {
          "index": 4
        },
        "roughnessFactor": 0.7994331035888225
      }
    },
    {
      "doubleSided": true,
      "name": "Connecter",
      "normalTexture": {
        "index": 7
      },
      "pbrMetallicRoughness": {
        "baseColorFactor": [
          0.1964824136499341,
          0.1964824136499341,
          0.1964824136499341,
          1.0
        ],
        "baseColorTexture": {
          "index": 6
        },
        "metallicFactor": 0.0,
        "roughnessFactor": 0.545455
      }
    }
  ],
  "meshes": [
    {
      "name": "RAM_Side_0",
      "primitives": [
        {
          "attributes": {
            "NORMAL": 1,
            "POSITION": 0,
            "TEXCOORD_0": 2
          },
          "indices": 3,
          "material": 0,
          "mode": 4
        }
      ]
    },
    {
      "name": "RAM_Front_0",
      "primitives": [
        {
          "attributes": {
            "NORMAL": 5,
            "POSITION": 4,
            "TEXCOORD_0": 6
          },
          "indices": 7,
          "material": 1,
          "mode": 4
        }
      ]
    },
    {
      "name": "RAM_Silver_0",
      "primitives": [
        {
          "attributes": {
            "NORMAL": 9,
            "POSITION": 8,
            "TEXCOORD_0": 10
          },
          "indices": 11,
          "material": 2,
          "mode": 4
        }
      ]
    },
    {
      "name": "RAM_Bronze_0",
      "primitives": [
        {
          "attributes": {
            "NORMAL": 13,
            "POSITION": 12,
            "TEXCOORD_0": 14
          },
          "indices": 15,
          "material": 3,
          "mode": 4
        }
      ]
    },
    {
      "name": "RAM_Storage_0",
      "primitives": [
        {
          "attributes": {
            "NORMAL": 17,
            "POSITION": 16,
            "TEXCOORD_0": 18
          },
          "indices": 19,
          "material": 4,
          "mode": 4
        }
      ]
    },
    {
      "name": "Cooler_Cooler_0",
      "primitives": [
        {
          "attributes": {
            "NORMAL": 21,
            "POSITION": 20,
            "TANGENT": 22,
            "TEXCOORD_0": 23,
            "TEXCOORD_1": 24,
            "TEXCOORD_2": 25
          },
          "indices": 26,
          "material": 5,
          "mode": 4
        }
      ]
    },
    {
      "name": "Connector_Connecter_0",
      "primitives": [
        {
          "attributes": {
            "NORMAL": 28,
            "POSITION": 27,
            "TANGENT": 29,
            "TEXCOORD_0": 30,
            "TEXCOORD_1": 31
          },
          "indices": 32,
          "material": 6,
          "mode": 4
        }
      ]
    }
  ],
  "nodes": [
    {
      "children": [
        1
      ],
      "matrix": [
        1.0,
        0.0,
        0.0,
        0.0,
        0.0,
        2.220446049250313e-16,
        -1.0,
        0.0,
        0.0,
        1.0,
        2.220446049250313e-16,
        0.0,
        0.0,
        0.0,
        0.0,
        1.0
      ],
      "name": "Sketchfab_model"
    },
    {
      "children": [
        2
      ],
      "matrix": [
        0.009999999776482582,
        0.0,
        0.0,
        0.0,
        0.0,
        0.0,
        0.009999999776482582,
        0.0,
        0.0,
        -0.009999999776482582,
        0.0,
        0.0,
        0.0,
        0.0,
        0.0,
        1.0
      ],
      "name": "untitled8.fbx"
    },
    {
      "children": [
        3
      ],
      "name": "Object_2"
    },
    {
      "children": [
        4
      ],
      "name": "RootNode"
    },
    {
      "children": [
        5,
        6,
        7,
        8,
        9,
        10
      ],
      "name": "RAM",
      "rotation": [
        1.461109633282831e-07,
        -0.7071065902709961,
        0.7071069478988647,
        8.42936600520261e-08
      ],
      "scale": [
        100.0,
        100.0,
        100.0
      ]
    },
    {
      "mesh": 0,
      "name": "RAM_Side_0"
    },
    {
      "mesh": 1,
      "name": "RAM_Front_0"
    },
    {
      "mesh": 2,
      "name": "RAM_Silver_0"
    },
    {
      "mesh": 3,
      "name": "RAM_Bronze_0"
    },
    {
      "mesh": 4,
      "name": "RAM_Storage_0"
    },
    {
      "children": [
        11,
        12
      ],
      "name": "Cooler",
      "rotation": [
        -1.6292067073209182e-07,
        1.0,
        -2.821299744937278e-07,
        4.371143447201575e-08
      ],
      "translation": [
        -1.5040861611748113e-10,
        0.00046160072088241577,
        -2.6046279022473584e-10
      ]
    },
    {
      "mesh": 5,
      "name": "Cooler_Cooler_0"
    },
    {
      "children": [
        13
      ],
      "name": "Connector",
      "rotation": [
        -2.481541837659083e-24,
        -2.973043833467569e-23,
        6.310887241768095e-30,
        1.0
      ],
      "translation": [
        6.310887241768094e-29,
        0.0,
        0.0
      ]
    },
    {
      "mesh": 6,
      "name": "Connector_Connecter_0"
    }
  ],
  "samplers": [
    {
      "magFilter": 9729,
      "minFilter": 9987,
      "wrapS": 10497,
      "wrapT": 10497
    }
  ],
  "scene": 0,
  "scenes": [
    {
      "name": "Sketchfab_Scene",
      "nodes": [
        0
      ]
    }
  ],
  "textures": [
    {
      "sampler": 0,
      "source": 0
    },
    {
      "sampler": 0,
      "source": 1
    },
    {
      "sampler": 0,
      "source": 2
    },
    {
      "sampler": 0,
      "source": 3
    },
    {
      "sampler": 0,
      "source": 4
    },
    {
      "sampler": 0,
      "source": 5
    },
    {
      "sampler": 0,
      "source": 6
    },
    {
      "sampler": 0,
      "source": 7
    }
  ]
}
