{
  "accessors": [
    {
      "bufferView": 2,
      "componentType": 5126,
      "count": 7487,
      "max": [
        1.0,
        1.0,
        509.40753173828125
      ],
      "min": [
        -1.0,
        -1.0,
        -72.96563720703125
      ],
      "type": "VEC3"
    },
    {
      "bufferView": 2,
      "byteOffset": 89844,
      "componentType": 5126,
      "count": 7487,
      "max": [
        1.0,
        1.0,
        1.0
      ],
      "min": [
        -1.0,
        -1.0,
        -1.0
      ],
      "type": "VEC3"
    },
    {
      "bufferView": 1,
      "componentType": 5126,
      "count": 7487,
      "max": [
        0.9866124391555786,
        1.0
      ],
      "min": [
        0.0,
        0.0
      ],
      "type": "VEC2"
    },
    {
      "bufferView": 0,
      "componentType": 5125,
      "count": 13167,
      "type": "SCALAR"
    },
    {
      "bufferView": 2,
      "byteOffset": 179688,
      "componentType": 5126,
      "count": 8832,
      "max": [
        94.54429626464844,
        29.75850486755371,
        1.0
      ],
      "min": [
        -1.0,
        -35.88508605957031,
        -1.0
      ],
      "type": "VEC3"
    },
    {
      "bufferView": 2,
      "byteOffset": 285672,
      "componentType": 5126,
      "count": 8832,
      "max": [
        0.9951860308647156,
        0.9951862096786499,
        1.0
      ],
      "min": [
        -0.9951876997947693,
        -0.9951862096786499,
        -1.0
      ],
      "type": "VEC3"
    },
    {
      "bufferView": 1,
      "byteOffset": 59896,
      "componentType": 5126,
      "count": 8832,
      "max": [
        1.0,
        1.0
      ],
      "min": [
        0.0,
        0.01000000536441803
      ],
      "type": "VEC2"
    },
    {
      "bufferView": 0,
      "byteOffset": 52668,
      "componentType": 5125,
      "count": 17388,
      "type": "SCALAR"
    },
    {
      "bufferView": 2,
      "byteOffset": 391656,
      "componentType": 5126,
      "count": 6960,
      "max": [
        1.0,
        1.0,
        8.23654556274414
      ],
      "min": [
        -1.0,
        -1.0,
        -1.0
      ],
      "type": "VEC3"
    },
    {
      "bufferView": 2,
      "byteOffset": 475176,
      "componentType": 5126,
      "count": 6960,
      "max": [
        1.0,
        1.0,
        1.0
      ],
      "min": [
        -1.0,
        -1.0,
        -1.0
      ],
      "type": "VEC3"
    },
    {
      "bufferView": 1,
      "byteOffset": 130552,
      "componentType": 5126,
      "count": 6960,
      "max": [
        1.0018513202667236,
        1.0
      ],
      "min": [
        0.00014329701662063599,
        -0.001789391040802002
      ],
      "type": "VEC2"
    },
    {
      "bufferView": 0,
      "byteOffset": 122220,
      "componentType": 5125,
      "count": 10452,
      "type": "SCALAR"
    }
  ],
  "asset": {
    "extras": {
      "author": "mantevian (https://sketchfab.com/mantevian)",
      "license": "CC-BY-4.0 (http://creativecommons.org/licenses/by/4.0/)",
      "source": "https://sketchfab.com/3d-models/motherboard-lab-7114a56e5ff74b3892896ab8b53804b6",
      "title": "motherboard_lab"
    },
    "generator": "Sketchfab-12.65.0",
    "version": "2.0"
  },
  "bufferViews": [
    {
      "buffer": 0,
      "byteLength": 164028,
      "name": "floatBufferViews",
      "target": 34963
    },
    {
      "buffer": 0,
      "byteLength": 186232,
      "byteOffset": 164028,
      "byteStride": 8,
      "name": "floatBufferViews",
      "target": 34962
    },
    {
      "buffer": 0,
      "byteLength": 558696,
      "byteOffset": 350260,
      "byteStride": 12,
      "name": "floatBufferViews",
      "target": 34962
    }
  ],
  "buffers": [
    {
      "byteLength": 908956,
      "uri": "scene.bin"
    }
  ],
  "images": [
    {
      "uri": "textures/Material_baseColor.jpeg"
    },
    {
      "uri": "textures/amd_ryzen_baseColor.png"
    }
  ],
  "materials": [
    {
      "doubleSided": true,
      "name": "Material",
      "pbrMetallicRoughness": {
        "baseColorTexture": {
          "index": 0
        },
        "metallicFactor": 0.0,
        "roughnessFactor": 0.8040408206
      }
    },
    {
      "doubleSided": true,
      "name": "dark_gray",
      "pbrMetallicRoughness": {
        "baseColorFactor": [
          0.102239,
          0.102239,
          0.102239,
          1.0
        ],
        "metallicFactor": 0.0,
        "roughnessFactor": 0.975841869
      }
    },
    {
      "doubleSided": true,
      "name": "amd_ryzen",
      "pbrMetallicRoughness": {
        "baseColorTexture": {
          "index": 1
        },
        "metallicFactor": 0.0,
        "roughnessFactor": 0.8211145618000169
      }
    }
  ],
  "meshes": [
    {
      "name": "Cube_Material_0",
      "primitives": [
        {
          "attributes": {
            "NORMAL": 1,
            "POSITION": 0,
            "TEXCOORD_0": 2
          },
          "indices": 3,
          "material": 0,
          "mode": 4
        }
      ]
    },
    {
      "name": "Cylinder.022_dark_gray_0",
      "primitives": [
        {
          "attributes": {
            "NORMAL": 5,
            "POSITION": 4,
            "TEXCOORD_0": 6
          },
          "indices": 7,
          "material": 1,
          "mode": 4
        }
      ]
    },
    {
      "name": "Cube.001_amd_ryzen_0",
      "primitives": [
        {
          "attributes": {
            "NORMAL": 9,
            "POSITION": 8,
            "TEXCOORD_0": 10
          },
          "indices": 11,
          "material": 2,
          "mode": 4
        }
      ]
    }
  ],
  "nodes": [
    {
      "children": [
        1
      ],
      "matrix": [
        1.0,
        0.0,
        0.0,
        0.0,
        0.0,
        2.220446049250313e-16,
        -1.0,
        0.0,
        0.0,
        1.0,
        2.220446049250313e-16,
        0.0,
        0.0,
        0.0,
        0.0,
        1.0
      ],
      "name": "Sketchfab_model"
    },
    {
      "children": [
        2
      ],
      "matrix": [
        0.009999999776482582,
        0.0,
        0.0,
        0.0,
        0.0,
        0.0,
        0.009999999776482582,
        0.0,
        0.0,
        -0.009999999776482582,
        0.0,
        0.0,
        0.0,
        0.0,
        0.0,
        1.0
      ],
      "name": "f7d2b32f703846ff94a8eac5947aae26.fbx"
    },
    {
      "children": [
        3,
        5,
        7
      ],
      "name": "RootNode"
    },
    {
      "children": [
        4
      ],
      "matrix": [
        777.702880859375,
        0.0,
        0.0,
        0.0,
        0.0,
        -0.00010136311332678642,
        -622.1623535156168,
        0.0,
        0.0,
        0.1711175143718697,
        -2.7878581697306854e-08,
        0.0,
        0.0,
        0.0,
        0.0,
        1.0
      ],
      "name": "Cube"
    },
    {
      "mesh": 0,
      "name": "Cube_Material_0"
    },
    {
      "children": [
        6
      ],
      "matrix": [
        15.36215400695795,
        -1.0165820769287579e-22,
        -1.3430023757469538e-06,
        0.0,
        -1.343002375746936e-06,
        -2.502812567735544e-06,
        -15.362154006957743,
        0.0,
        -3.5527514254154714e-13,
        24.94387626647916,
        -4.063873268000618e-06,
        0.0,
        -761.28515625,
        22.814313888549805,
        58.53826904296875,
        1.0
      ],
      "name": "Cylinder.022"
    },
    {
      "mesh": 1,
      "name": "Cylinder.022_dark_gray_0"
    },
    {
      "children": [
        8
      ],
      "matrix": [
        107.50000762939453,
        0.0,
        0.0,
        0.0,
        0.0,
        -1.751397427760802e-05,
        -107.50000762939311,
        0.0,
        0.0,
        2.499999999999967,
        -4.0730169847957853e-07,
        0.0,
        296.90667724609375,
        1.8798781633377075,
        70.40254211425781,
        1.0
      ],
      "name": "Cube.001"
    },
    {
      "mesh": 2,
      "name": "Cube.001_amd_ryzen_0"
    }
  ],
  "samplers": [
    {
      "magFilter": 9729,
      "minFilter": 9987,
      "wrapS": 10497,
      "wrapT": 10497
    }
  ],
  "scene": 0,
  "scenes": [
    {
      "name": "Sketchfab_Scene",
      "nodes": [
        0
      ]
    }
  ],
  "textures": [
    {
      "sampler": 0,
      "source": 0
    },
    {
      "sampler": 0,
      "source": 1
    }
  ]
}
