{
  "accessors": [
    {
      "bufferView": 2,
      "componentType": 5126,
      "count": 18960,
      "max": [
        4.773100852966309,
        3.5925180912017822,
        -0.06088100001215935
      ],
      "min": [
        -4.7756781578063965,
        -3.639317035675049,
        -0.3419229984283447
      ],
      "type": "VEC3"
    },
    {
      "bufferView": 2,
      "byteOffset": 227520,
      "componentType": 5126,
      "count": 18960,
      "max": [
        0.9238766431808472,
        0.9238766431808472,
        0.0
      ],
      "min": [
        -0.9238766431808472,
        -0.9238766431808472,
        -1.0
      ],
      "type": "VEC3"
    },
    {
      "bufferView": 1,
      "componentType": 5126,
      "count": 18960,
      "max": [
        0.7263919711112976,
        0.3740079998970032
      ],
      "min": [
        0.7263919711112976,
        0.3740079998970032
      ],
      "type": "VEC2"
    },
    {
      "bufferView": 0,
      "componentType": 5125,
      "count": 31284,
      "type": "SCALAR"
    },
    {
      "bufferView": 2,
      "byteOffset": 455040,
      "componentType": 5126,
      "count": 9473,
      "max": [
        4.287147045135498,
        3.181165933609009,
        0.20848800241947174
      ],
      "min": [
        -4.671084880828857,
        -3.2947230339050293,
        0.1476140022277832
      ],
      "type": "VEC3"
    },
    {
      "bufferView": 2,
      "byteOffset": 568716,
      "componentType": 5126,
      "count": 9473,
      "max": [
        1.0,
        0.9998588562011719,
        1.0
      ],
      "min": [
        -0.9991007447242737,
        -0.9998934268951416,
        0.0
      ],
      "type": "VEC3"
    },
    {
      "bufferView": 1,
      "byteOffset": 151680,
      "componentType": 5126,
      "count": 9473,
      "max": [
        0.48263800144195557,
        0.4082280099391937
      ],
      "min": [
        0.1130710020661354,
        0.36854299902915955
      ],
      "type": "VEC2"
    },
    {
      "bufferView": 0,
      "byteOffset": 125136,
      "componentType": 5125,
      "count": 25608,
      "type": "SCALAR"
    },
    {
      "bufferView": 2,
      "byteOffset": 682392,
      "componentType": 5126,
      "count": 780,
      "max": [
        4.952178955078125,
        3.8272039890289307,
        0.36642199754714966
      ],
      "min": [
        -4.952178955078125,
        -3.8272039890289307,
        -0.20707499980926514
      ],
      "type": "VEC3"
    },
    {
      "bufferView": 2,
      "byteOffset": 691752,
      "componentType": 5126,
      "count": 780,
      "max": [
        1.0,
        1.0,
        1.0
      ],
      "min": [
        -1.0,
        -1.0,
        -1.0
      ],
      "type": "VEC3"
    },
    {
      "bufferView": 1,
      "byteOffset": 227464,
      "componentType": 5126,
      "count": 780,
      "max": [
        0.920195996761322,
        0.8234639763832092
      ],
      "min": [
        0.10169299691915512,
        0.08433099836111069
      ],
      "type": "VEC2"
    },
    {
      "bufferView": 0,
      "byteOffset": 227568,
      "componentType": 5125,
      "count": 1194,
      "type": "SCALAR"
    },
    {
      "bufferView": 2,
      "byteOffset": 701112,
      "componentType": 5126,
      "count": 568,
      "max": [
        2.5355679988861084,
        2.4109671115875244,
        0.37776100635528564
      ],
      "min": [
        -2.0786991119384766,
        -2.431734085083008,
        0.0453060008585453
      ],
      "type": "VEC3"
    },
    {
      "bufferView": 2,
      "byteOffset": 707928,
      "componentType": 5126,
      "count": 568,
      "max": [
        1.0,
        1.0,
        1.0
      ],
      "min": [
        -1.0,
        -1.0,
        -1.0
      ],
      "type": "VEC3"
    },
    {
      "bufferView": 1,
      "byteOffset": 233704,
      "componentType": 5126,
      "count": 568,
      "max": [
        0.8871250152587891,
        0.883338987827301
      ],
      "min": [
        0.5679919719696045,
        0.1289760023355484
      ],
      "type": "VEC2"
    },
    {
      "bufferView": 0,
      "byteOffset": 232344,
      "componentType": 5125,
      "count": 852,
      "type": "SCALAR"
    }
  ],
  "asset": {
    "extras": {
      "author": "Хлюпич (https://sketchfab.com/foxplay382)",
      "license": "CC-BY-4.0 (http://creativecommons.org/licenses/by/4.0/)",
      "source": "https://sketchfab.com/3d-models/transmeta-crusoe-tm5800-cbga474-7cf5e14cf53e43c4a7434136389f93c0",
      "title": "Transmeta Crusoe TM5800 CBGA474"
    },
    "generator": "Sketchfab-14.20.0",
    "version": "2.0"
  },
  "bufferViews": [
    {
      "buffer": 0,
      "byteLength": 235752,
      "name": "floatBufferViews",
      "target": 34963
    },
    {
      "buffer": 0,
      "byteLength": 238248,
      "byteOffset": 235752,
      "byteStride": 8,
      "name": "floatBufferViews",
      "target": 34962
    },
    {
      "buffer": 0,
      "byteLength": 714744,
      "byteOffset": 474000,
      "byteStride": 12,
      "name": "floatBufferViews",
      "target": 34962
    }
  ],
  "buffers": [
    {
      "byteLength": 1188744,
      "uri": "scene.bin"
    }
  ],
  "images": [
    {
      "uri": "textures/None_baseColor.png"
    }
  ],
  "materials": [
    {
      "doubleSided": true,
      "name": "None",
      "pbrMetallicRoughness": {
        "baseColorTexture": {
          "index": 0
        },
        "metallicFactor": 0.0,
        "roughnessFactor": 0.6
      }
    },
    {
      "doubleSided": true,
      "name": "None.002",
      "pbrMetallicRoughness": {
        "baseColorTexture": {
          "index": 0
        },
        "metallicFactor": 0.0,
        "roughnessFactor": 0.6
      }
    },
    {
      "doubleSided": true,
      "name": "None.004",
      "pbrMetallicRoughness": {
        "baseColorTexture": {
          "index": 0
        },
        "metallicFactor": 0.0,
        "roughnessFactor": 0.6
      }
    }
  ],
  "meshes": [
    {
      "name": "Object_0",
      "primitives": [
        {
          "attributes": {
            "NORMAL": 1,
            "POSITION": 0,
            "TEXCOORD_0": 2
          },
          "indices": 3,
          "material": 0,
          "mode": 4
        }
      ]
    },
    {
      "name": "Object_1",
      "primitives": [
        {
          "attributes": {
            "NORMAL": 5,
            "POSITION": 4,
            "TEXCOORD_0": 6
          },
          "indices": 7,
          "material": 0,
          "mode": 4
        }
      ]
    },
    {
      "name": "Object_2",
      "primitives": [
        {
          "attributes": {
            "NORMAL": 9,
            "POSITION": 8,
            "TEXCOORD_0": 10
          },
          "indices": 11,
          "material": 1,
          "mode": 4
        }
      ]
    },
    {
      "name": "Object_3",
      "primitives": [
        {
          "attributes": {
            "NORMAL": 13,
            "POSITION": 12,
            "TEXCOORD_0": 14
          },
          "indices": 15,
          "material": 2,
          "mode": 4
        }
      ]
    }
  ],
  "nodes": [
    {
      "children": [
        1
      ],
      "matrix": [
        1.0,
        0.0,
        0.0,
        0.0,
        0.0,
        2.220446049250313e-16,
        -1.0,
        0.0,
        0.0,
        1.0,
        2.220446049250313e-16,
        0.0,
        0.0,
        0.0,
        0.0,
        1.0
      ],
      "name": "Sketchfab_model"
    },
    {
      "children": [
        2,
        3,
        4,
        5
      ],
      "name": "TransmetaCrusoe.obj.cleaner.materialmerger.gles"
    },
    {
      "mesh": 0,
      "name": "Object_2"
    },
    {
      "mesh": 1,
      "name": "Object_3"
    },
    {
      "mesh": 2,
      "name": "Object_4"
    },
    {
      "mesh": 3,
      "name": "Object_5"
    }
  ],
  "samplers": [
    {
      "magFilter": 9729,
      "minFilter": 9987,
      "wrapS": 10497,
      "wrapT": 10497
    }
  ],
  "scene": 0,
  "scenes": [
    {
      "name": "Sketchfab_Scene",
      "nodes": [
        0
      ]
    }
  ],
  "textures": [
    {
      "sampler": 0,
      "source": 0
    }
  ]
}
